<?xml version="1.0" encoding="UTF-8"?>
<svg id="Camada_2" data-name="Camada 2" xmlns="http://www.w3.org/2000/svg" viewBox="0 0 497.05 187.7">
  <defs>
    <style>
      .cls-1 {
        fill: none;
        stroke: none;
        stroke-miterlimit: 10;
        stroke-width: 1.15px;
      }

      .cls-2 {
        fill: none;
      }

      .cls-2, .cls-3 {
        stroke-width: 0px;
      }

      .cls-3 {
        fill: #fff;
      }
    </style>
  </defs>
  <g id="Camada_1-2" data-name="Camada 1">
    <g>
      <polygon class="cls-1" points="443.92 187.13 9.04 187.13 61.4 9.04 496.28 9.04 443.92 187.13"/>
      <polygon class="cls-2" points="434.88 178.09 0 178.09 52.37 0 487.25 0 434.88 178.09"/>
      <g>
        <polygon class="cls-3" points="95.88 31.83 101.71 31.83 101.45 33.36 97.38 33.36 96.06 40.76 99.59 40.76 99.33 42.29 95.79 42.29 94.05 52.16 92.29 52.16 95.88 31.83"/>
        <g>
          <path class="cls-3" d="M113.23,49.45c0-.29.03-.62.09-.94l2.42-13.58c.38-2.21,1.65-3.39,3.56-3.39,2.06,0,3.24,1.15,3.24,3,0,.29-.03.62-.09.94l-2.42,13.58c-.38,2.21-1.65,3.39-3.56,3.39-2.06,0-3.24-1.15-3.24-3M118.35,48.62l2.3-12.99c.09-.44.12-.74.12-1.03,0-1.03-.5-1.47-1.56-1.47s-1.5.65-1.8,2.24l-2.3,12.99c-.09.44-.12.74-.12,1.03,0,1.03.5,1.47,1.56,1.47s1.5-.65,1.8-2.24M121.09,27h2.21l-3.03,2.77h-1.65l2.47-2.77Z"/>
          <path class="cls-3" d="M138.35,31.83h2.56c2.68,0,3.59,1.09,3.59,2.83,0,.35-.03.74-.12,1.18l-.47,2.65c-.32,1.77-1.06,2.59-2.12,2.89v.06c.77.44,1.12,1.15,1.12,2.18,0,.32-.03.65-.09,1.03l-1.32,7.51h-1.77l1.33-7.48c.06-.41.12-.77.12-1.09,0-1.06-.5-1.5-2.18-1.5h-.71l-1.77,10.07h-1.77l3.59-20.32ZM139.91,40.58c1.47,0,1.97-.53,2.3-2.39l.38-2.21c.09-.47.12-.79.12-1.12,0-1.06-.5-1.5-1.89-1.5h-.97l-1.3,7.22h1.36Z"/>
          <path class="cls-3" d="M157.23,49.47c0-.26.03-.56.09-.88l2.95-16.76h1.77l-2.95,16.64c-.09.44-.12.71-.12,1,0,1,.53,1.39,1.5,1.39s1.47-.62,1.74-2.12l2.97-16.91h1.71l-3.03,17.35c-.35,2.09-1.65,3.27-3.45,3.27-2,0-3.18-1.12-3.18-2.98"/>
          <polygon class="cls-3" points="182.23 31.83 184.94 31.83 184.56 46.91 184.62 46.91 189.54 31.83 192.54 31.83 188.95 52.16 187.18 52.16 190.36 33.98 190.3 33.98 184.35 52.16 182.97 52.16 183.44 33.98 183.38 33.98 180.2 52.16 178.64 52.16 182.23 31.83"/>
          <polygon class="cls-3" points="224.7 31.83 226.47 31.83 222.88 52.16 221.11 52.16 224.7 31.83"/>
          <polygon class="cls-3" points="243.35 33.36 240.87 33.36 241.14 31.83 247.85 31.83 247.59 33.36 245.11 33.36 241.79 52.16 240.02 52.16 243.35 33.36"/>
          <polygon class="cls-3" points="262.52 31.83 264.29 31.83 260.96 50.62 264.73 50.62 264.46 52.16 258.93 52.16 262.52 31.83"/>
          <path class="cls-3" d="M299.51,31.83h2.62c2.68,0,3.59,1.09,3.59,2.83,0,.35-.06.77-.12,1.18l-2.27,12.9c-.44,2.44-1.56,3.42-4.01,3.42h-3.42l3.59-20.32ZM299.36,50.62c1.47,0,1.97-.53,2.3-2.39l2.15-12.28c.09-.44.12-.77.12-1.09,0-1.06-.5-1.5-1.89-1.5h-1.03l-3.06,17.26h1.41Z"/>
          <polygon class="cls-3" points="321.57 31.83 327.4 31.83 327.14 33.36 323.07 33.36 321.81 40.46 325.34 40.46 325.08 41.99 321.54 41.99 320.01 50.62 324.07 50.62 323.81 52.16 317.98 52.16 321.57 31.83"/>
          <polygon class="cls-3" points="356.68 45.29 361.92 42.91 357.53 40.52 357.77 39.05 363.74 42.38 363.54 43.67 356.38 47 356.68 45.29"/>
          <polygon class="cls-3" points="378.47 45.29 383.71 42.91 379.32 40.52 379.56 39.05 385.54 42.38 385.33 43.67 378.18 47 378.47 45.29"/>
          <polygon class="cls-3" points="400.26 45.29 405.51 42.91 401.12 40.52 401.35 39.05 407.33 42.38 407.13 43.67 399.97 47 400.26 45.29"/>
          <polygon class="cls-3" points="87.99 73.12 91 73.12 85.66 98.19 82.66 98.19 87.99 73.12"/>
          <polygon class="cls-3" points="97.27 73.12 102.09 73.12 120.92 96.05 125.8 73.12 128.81 73.12 123.47 98.19 118.62 98.19 99.83 75.27 94.94 98.19 91.94 98.19 97.27 73.12"/>
          <path class="cls-3" d="M162.45,73.84c1.69.75,2.52,2.22,2.52,4.55,0,3.16-2.03,12.33-3.35,15.07-1.09,2.29-2.82,3.72-5.3,4.4-1.8.45-4.47.6-11.35.6-8.01,0-10.15-.19-11.99-.98-1.69-.75-2.52-2.22-2.52-4.55,0-3.12,2.03-12.37,3.35-15.07,1.09-2.29,2.82-3.72,5.3-4.4,1.8-.45,4.47-.6,11.5-.6,7.86,0,10.04.19,11.84.98M138.39,76.62c-1.54.98-2.1,2.22-3.27,7.14-.87,3.72-1.47,7.22-1.47,8.49,0,1.5.49,2.41,1.58,2.86,1.5.6,3.04.71,10.15.71,8.38,0,10.11-.15,11.65-1.13,1.54-.98,2.1-2.25,3.27-7.14.86-3.76,1.47-7.22,1.47-8.49,0-3.16-1.35-3.57-11.61-3.57-8.01,0-10.3.23-11.76,1.13"/>
          <polygon class="cls-3" points="170.41 73.12 178.15 95.97 195.63 73.12 198.98 73.12 179.81 98.19 175.56 98.19 167.03 73.12 170.41 73.12"/>
          <path class="cls-3" d="M196.27,92.55l-4.51,5.64h-3.34l20.07-25.07h4.28l9.43,25.07h-3.31l-2.14-5.64h-20.48ZM210.21,75.23l-12.03,14.96h17.66l-5.64-14.96Z"/>
          <path class="cls-3" d="M254.41,89.77l-.23,1.05c-.86,4.06-1.99,5.75-4.47,6.77-1.54.6-5.04.86-11.99.86s-9.25-.23-10.98-.98c-1.69-.75-2.52-2.22-2.52-4.55,0-1.73.79-6.2,1.84-10.6,1.28-5.15,2.74-7.37,5.71-8.49,2.14-.83,4.32-.98,13.68-.98,5.15,0,7.1.19,8.68.83,1.58.64,2.33,1.92,2.33,4.02,0,.75-.11,1.65-.41,3.31h-2.97c.34-1.32.41-1.88.41-2.63,0-2.48-1.54-2.9-10.75-2.9-9.77,0-11.35.49-12.67,3.87-.94,2.44-2.67,10.82-2.67,12.97,0,1.43.53,2.33,1.58,2.78,1.35.56,3.35.71,8.76.71,11.28,0,12.52-.41,13.42-4.62l.3-1.43h2.93ZM232.39,103.15l6.39-3.19.86,2.25-6.61,2.67-.64-1.73Z"/>
          <path class="cls-3" d="M261.51,92.55l-4.51,5.64h-3.34l20.07-25.07h4.28l9.43,25.07h-3.31l-2.14-5.64h-20.49ZM275.46,75.23l-12.03,14.96h17.66l-5.64-14.96ZM269.33,70.27c.83-2.33,2.59-3.65,4.85-3.65.94,0,1.39.11,3.04.86,1.2.53,2.03.75,2.63.75,1.09,0,1.8-.56,2.25-1.73l2.29.41c-.83,2.26-2.67,3.65-4.89,3.65-.94,0-1.39-.11-3.04-.87-1.2-.53-2.03-.75-2.63-.75-1.09,0-1.8.56-2.25,1.73l-2.25-.41Z"/>
          <path class="cls-3" d="M321.46,73.84c1.69.75,2.52,2.22,2.52,4.55,0,3.16-2.03,12.33-3.35,15.07-1.09,2.29-2.82,3.72-5.3,4.4-1.8.45-4.47.6-11.35.6-8.01,0-10.15-.19-11.99-.98-1.69-.75-2.52-2.22-2.52-4.55,0-3.12,2.03-12.37,3.34-15.07,1.09-2.29,2.82-3.72,5.3-4.4,1.8-.45,4.47-.6,11.5-.6,7.86,0,10.04.19,11.84.98M297.41,76.62c-1.54.98-2.1,2.22-3.27,7.14-.86,3.72-1.46,7.22-1.46,8.49,0,1.5.49,2.41,1.58,2.86,1.5.6,3.04.71,10.15.71,8.38,0,10.11-.15,11.65-1.13,1.54-.98,2.1-2.25,3.27-7.14.86-3.76,1.46-7.22,1.46-8.49,0-3.16-1.35-3.57-11.61-3.57-8.01,0-10.3.23-11.76,1.13"/>
          <path class="cls-3" d="M339.69,73.12h19.47c4.88,0,7.22.71,8.53,2.63.68,1.01.98,2.22.98,4.17,0,3.57-1.2,8.87-2.74,12.18-1.05,2.25-2.33,3.65-4.13,4.62-1.99,1.09-4.06,1.47-7.93,1.47h-19.51l5.34-25.07ZM354.61,95.67c4.58,0,7.03-1.2,8.42-4.17,1.32-2.78,2.48-8.01,2.48-11.2,0-3.57-1.62-4.66-6.84-4.66h-16.5l-4.28,20.03h16.72Z"/>
          <path class="cls-3" d="M403.58,73.84c1.69.75,2.52,2.22,2.52,4.55,0,3.16-2.03,12.33-3.34,15.07-1.09,2.29-2.82,3.72-5.3,4.4-1.8.45-4.47.6-11.35.6-8.01,0-10.15-.19-11.99-.98-1.69-.75-2.52-2.22-2.52-4.55,0-3.12,2.03-12.37,3.35-15.07,1.09-2.29,2.82-3.72,5.3-4.4,1.8-.45,4.47-.6,11.5-.6,7.86,0,10.04.19,11.84.98M379.53,76.62c-1.54.98-2.1,2.22-3.27,7.14-.86,3.72-1.46,7.22-1.46,8.49,0,1.5.49,2.41,1.58,2.86,1.5.6,3.04.71,10.15.71,8.38,0,10.11-.15,11.65-1.13,1.54-.98,2.1-2.25,3.27-7.14.86-3.76,1.46-7.22,1.46-8.49,0-3.16-1.35-3.57-11.61-3.57-8.01,0-10.3.23-11.76,1.13"/>
          <polygon class="cls-3" points="96.24 115.06 83.5 115.06 84.03 112.54 112.48 112.54 111.95 115.06 99.25 115.06 94.44 137.61 91.43 137.61 96.24 115.06"/>
          <path class="cls-3" d="M115,112.54h20.63c3.2,0,4.55.3,5.75,1.2.9.72,1.39,1.8,1.39,3.2,0,1.95-.38,4.36-.98,6.01-.56,1.58-1.84,2.86-3.31,3.23-.26.08-.56.11-1.43.23.72.11,1.02.19,1.35.34.87.41,1.5,1.35,1.5,2.29,0,.45-.11,1.17-.3,2.07l-1.35,6.5h-3.01l1.01-4.77c.19-1.02.34-2.1.34-2.71,0-1.2-.6-2.03-1.69-2.37-.71-.19-1.43-.26-2.9-.26h-17.21l-2.14,10.11h-3.01l5.34-25.07ZM131.83,125.13c3.23,0,4.74-.38,5.86-1.47.68-.68,1.05-1.39,1.43-2.82.3-1.05.45-2.11.45-2.93,0-2.1-1.54-2.86-5.79-2.86h-16.31l-2.14,10.07h16.5Z"/>
          <path class="cls-3" d="M148.33,131.97l-4.51,5.64h-3.35l20.07-25.07h4.28l9.43,25.07h-3.31l-2.14-5.64h-20.48ZM162.28,114.65l-12.03,14.96h17.66l-5.64-14.96Z"/>
          <polygon class="cls-3" points="181.59 112.54 186.4 112.54 205.23 135.47 210.12 112.54 213.13 112.54 207.79 137.61 202.94 137.61 184.15 114.69 179.26 137.61 176.26 137.61 181.59 112.54"/>
          <path class="cls-3" d="M217.71,129.8l-.11.68c-.15.68-.26,1.47-.26,1.88,0,1.24.38,1.77,1.54,2.18,1.32.49,4.1.71,8.57.71,6.43,0,9.25-.38,10.79-1.5.79-.56,1.2-1.2,1.58-2.33.26-.86.45-1.88.45-2.44,0-1.35-.79-2.07-2.71-2.4-1.32-.23-1.95-.23-11.95-.3-3.57-.04-5.04-.19-6.54-.75-1.65-.56-2.52-1.8-2.52-3.46,0-2.26,1.05-5.26,2.33-6.65,2.14-2.37,5.68-3.12,14.47-3.12s11.76,1.09,11.76,4.81c0,.53-.11,1.39-.3,2.63h-2.93c.15-.83.19-1.24.19-1.69,0-2.48-1.92-3.12-9.25-3.12-5.83,0-8.98.34-10.52,1.2-.9.49-1.47,1.13-1.88,2.22-.38.9-.6,1.99-.6,2.78,0,1.16.6,1.84,2.03,2.18,1.02.26,2.78.34,8.38.34,6.73.04,8.12.11,10.04.56,2.14.53,3.2,1.84,3.2,3.91s-.86,5-1.92,6.39c-2.1,2.71-4.85,3.38-14.13,3.38-6.05,0-8.87-.26-10.71-.94-1.69-.64-2.52-1.92-2.52-3.87,0-.45.08-1.01.19-1.54l.34-1.73h3.01Z"/>
          <path class="cls-3" d="M252.25,112.54h20.22c3.53,0,4.89.26,5.9,1.2.79.68,1.13,1.62,1.13,3.08,0,2.29-1.09,6.39-2.14,7.93-1.39,2.07-3.72,3.01-7.44,3.01h-17.89l-2.1,9.85h-3.01l5.34-25.07ZM268.22,125.25c3.31,0,5.11-.41,6.09-1.43.98-1.02,1.88-3.84,1.88-5.9s-1.32-2.86-5.22-2.86h-16.24l-2.18,10.19h15.67Z"/>
          <path class="cls-3" d="M312.01,113.26c1.69.75,2.52,2.22,2.52,4.55,0,3.16-2.03,12.33-3.35,15.07-1.09,2.29-2.82,3.72-5.3,4.4-1.8.45-4.47.6-11.35.6-8.01,0-10.15-.19-11.99-.98-1.69-.75-2.52-2.22-2.52-4.55,0-3.12,2.03-12.37,3.34-15.07,1.09-2.29,2.82-3.72,5.3-4.4,1.8-.45,4.47-.6,11.5-.6,7.86,0,10.04.19,11.84.98M287.96,116.04c-1.54.98-2.1,2.22-3.27,7.14-.86,3.72-1.46,7.21-1.46,8.49,0,1.5.49,2.41,1.58,2.86,1.5.6,3.04.71,10.15.71,8.38,0,10.11-.15,11.65-1.13,1.54-.98,2.1-2.25,3.27-7.14.86-3.76,1.46-7.22,1.46-8.49,0-3.16-1.35-3.57-11.61-3.57-8.01,0-10.3.23-11.76,1.13"/>
          <path class="cls-3" d="M321.59,112.54h20.63c3.2,0,4.55.3,5.75,1.2.9.72,1.39,1.8,1.39,3.2,0,1.95-.38,4.36-.98,6.01-.56,1.58-1.84,2.86-3.31,3.23-.26.08-.56.11-1.43.23.71.11,1.01.19,1.35.34.87.41,1.5,1.35,1.5,2.29,0,.45-.11,1.17-.3,2.07l-1.35,6.5h-3.01l1.02-4.77c.19-1.02.34-2.1.34-2.71,0-1.2-.6-2.03-1.69-2.37-.71-.19-1.43-.26-2.89-.26h-17.21l-2.14,10.11h-3.01l5.34-25.07ZM338.43,125.13c3.23,0,4.73-.38,5.86-1.47.68-.68,1.05-1.39,1.43-2.82.3-1.05.45-2.11.45-2.93,0-2.1-1.54-2.86-5.79-2.86h-16.31l-2.14,10.07h16.5Z"/>
          <polygon class="cls-3" points="364.59 115.06 351.85 115.06 352.37 112.54 380.82 112.54 380.3 115.06 367.6 115.06 362.78 137.61 359.78 137.61 364.59 115.06"/>
          <polygon class="cls-3" points="383.34 112.54 408.3 112.54 407.77 115.06 385.82 115.06 384.02 123.44 405.18 123.44 404.65 125.81 383.53 125.81 381.54 135.09 403.68 135.09 403.15 137.61 378 137.61 383.34 112.54"/>
          <rect class="cls-3" x="77.61" y="103.8" width="144.43" height="2.72"/>
          <rect class="cls-3" x="247.64" y="103.8" width="162" height="2.72"/>
        </g>
      </g>
    </g>
  </g>
</svg>