<?xml version="1.0" encoding="UTF-8"?>
<svg id="Camada_2" data-name="Camada 2" xmlns="http://www.w3.org/2000/svg" viewBox="0 0 404.12 47.17">
  <defs>
    <style>
      .cls-1 {
        fill: #fff;
      }

      .cls-1, .cls-2 {
        stroke-width: 0px;
      }

      .cls-2 {
        fill: #009fe3;
      }
    </style>
  </defs>
  <g id="Camada_1-2" data-name="Camada 1">
    <g>
      <path class="cls-1" d="M251.87,8.56h-3.64l-5.18,15.25h-7.99l5.18-15.25h-3.64l1.48-4.34h15.27l-1.47,4.34h0ZM232.29,18.63c-.6,1.75-1.79,3.11-3.59,4.06-1.81.95-4.07,1.43-6.79,1.43s-4.54-.45-5.54-1.34c-1-.9-1.26-2.47-.8-4.72l7.27-.87c-.36,1.94-.2,2.91.48,2.91.59,0,1-.33,1.23-.98.22-.65.17-1.24-.16-1.77-.32-.52-1.04-1.12-2.14-1.79-1.64-1.01-2.74-1.96-3.3-2.85-.55-.97-.62-2.1-.18-3.39,1.22-3.6,4.6-5.4,10.14-5.4,2.57,0,4.36.46,5.35,1.37.99.92,1.3,2.32.91,4.22l-7,.87c.28-1.63.09-2.43-.6-2.43-.53,0-.88.26-1.06.78-.15.45-.08.85.22,1.21.27.41.96.96,2.06,1.62,1.83,1.14,2.99,2.17,3.48,3.1.57,1.03.58,2.35.02,3.98h0ZM212.8,23.81h-13.94l6.65-19.58h13.9l-1.47,4.34h-5.91l-.94,2.76h4.81l-1.45,4.28h-4.8l-1.31,3.87h5.95l-1.48,4.33h0ZM199.39,18.63c-.59,1.75-1.79,3.11-3.6,4.06-1.8.95-4.06,1.43-6.79,1.43s-4.54-.45-5.54-1.34c-1-.9-1.26-2.47-.79-4.72l7.27-.87c-.37,1.94-.21,2.91.47,2.91.59,0,1.01-.33,1.22-.98.22-.65.17-1.24-.16-1.77-.32-.52-1.03-1.12-2.14-1.79-1.64-1.01-2.74-1.96-3.3-2.85-.56-.97-.62-2.1-.18-3.39,1.22-3.6,4.6-5.4,10.14-5.4,2.57,0,4.36.46,5.35,1.37.99.92,1.3,2.32.92,4.22l-7,.87c.29-1.63.09-2.43-.59-2.43-.53,0-.9.26-1.07.78-.15.45-.08.85.21,1.21.27.41.97.96,2.07,1.62,1.84,1.14,2.99,2.17,3.47,3.1.57,1.03.58,2.35.03,3.98h0Z"/>
      <path class="cls-1" d="M347.68,8.56h-3.64l-5.18,15.25h-7.99l5.18-15.25h-3.64l1.48-4.34h15.27l-1.47,4.34h0ZM322.94,16.93l.21-1.01c.2-1.02.73-3.31,1.58-6.85-.88,2.03-1.9,4.32-3.09,6.85l-.47,1.01h1.77ZM329.62,23.81h-7.87l.52-2.96h-3.11l-1.49,2.96h-7.59l11.23-19.58h10.38l-2.07,19.58h0ZM309.46,23.81h-6.34l-.55-3.61c-.31-2.04-.47-3.69-.46-4.92-.27,1.07-.75,2.62-1.45,4.67l-1.32,3.86h-7.19l6.65-19.58h6.76l.37,2.41c.38,2.38.57,4.17.59,5.35.26-1.21.77-2.92,1.52-5.13l.89-2.63h7.2l-6.66,19.58h0ZM290.94,23.81h-13.94l6.65-19.58h13.9l-1.47,4.34h-5.9l-.94,2.76h4.8l-1.45,4.28h-4.8l-1.31,3.87h5.95l-1.48,4.33h0ZM277.52,18.63c-.6,1.75-1.8,3.11-3.59,4.06-1.8.95-4.07,1.43-6.79,1.43s-4.54-.45-5.53-1.34c-1-.9-1.26-2.47-.79-4.72l7.26-.87c-.36,1.94-.2,2.91.48,2.91.6,0,1-.33,1.23-.98.23-.65.16-1.24-.15-1.77-.33-.52-1.05-1.12-2.15-1.79-1.64-1.01-2.74-1.96-3.3-2.85-.55-.97-.61-2.1-.18-3.39,1.23-3.6,4.6-5.4,10.14-5.4,2.58,0,4.36.46,5.35,1.37,1,.92,1.31,2.32.92,4.22l-7,.87c.29-1.63.09-2.43-.59-2.43-.53,0-.89.26-1.06.78-.16.45-.08.85.21,1.21.28.41.97.96,2.07,1.62,1.84,1.14,2.99,2.17,3.47,3.1.57,1.03.58,2.35.03,3.98h0Z"/>
      <path class="cls-1" d="M125.69,17.07c-1.19,2.37-2.55,4.1-4.08,5.21-1.72,1.23-3.91,1.84-6.58,1.84-3.05,0-5.01-.68-5.88-2.04-.96-1.55-.78-4.23.52-8.05,1.3-3.82,2.95-6.51,4.96-8.06,1.79-1.36,4.22-2.04,7.27-2.04,2.72,0,4.53.63,5.44,1.9.77,1.12.88,2.86.31,5.23l-7.72.64c.48-1.51.75-2.46.79-2.85.05-.39-.05-.59-.29-.59-.27,0-.53.27-.81.81-.33.71-.93,2.36-1.81,4.95-.88,2.59-1.4,4.24-1.55,4.95-.1.54,0,.81.26.81.24,0,.46-.18.67-.53.21-.36.64-1.34,1.31-2.94l7.2.75h0ZM141.65,23.81h-6.35l-.55-3.61c-.31-2.05-.46-3.69-.46-4.92-.27,1.06-.76,2.62-1.45,4.67l-1.31,3.86h-7.19l6.65-19.58h6.75l.38,2.41c.37,2.39.57,4.17.58,5.34.26-1.21.77-2.92,1.52-5.12l.89-2.63h7.19l-6.65,19.58h0ZM163.17,8.56h-3.64l-5.18,15.25h-7.99l5.18-15.25h-3.64l1.47-4.34h15.27l-1.47,4.34h0Z"/>
      <polygon class="cls-1" points="374.16 3.92 380.91 3.92 373.73 24.11 366.98 24.11 374.16 3.92 374.16 3.92"/>
      <polygon class="cls-1" points="383.75 9.4 380.03 9.4 381.98 3.92 396.17 3.92 394.22 9.4 390.5 9.4 385.27 24.11 378.52 24.11 383.75 9.4 383.75 9.4"/>
      <polygon class="cls-1" points="397.21 3.92 403.96 3.92 398.73 18.63 404.12 18.63 402.18 24.11 390.03 24.11 397.21 3.92 397.21 3.92"/>
      <polygon class="cls-1" points="176.61 4.24 174.78 4.24 168.18 23.94 170.02 23.94 176.61 4.24 176.61 4.24"/>
      <polygon class="cls-1" points="361.23 4.24 359.39 4.24 352.79 23.94 354.63 23.94 361.23 4.24 361.23 4.24"/>
      <path class="cls-1" d="M187.2,44.37c.92,0,1.75-.14,2.46-.43.72-.28,1.27-.69,1.66-1.2.39-.52.59-1.13.59-1.83,0-.57-.15-1.03-.45-1.39-.3-.36-.66-.62-1.09-.81-.43-.18-.98-.37-1.65-.56-.53-.16-.93-.3-1.2-.4-.27-.11-.51-.25-.7-.43-.19-.18-.29-.41-.29-.69,0-.48.23-.86.69-1.15.46-.29,1.09-.43,1.88-.43.54,0,1.06.07,1.56.21.5.14.95.35,1.34.61l.78-1.57c-.45-.28-.98-.51-1.6-.66-.62-.16-1.28-.24-1.97-.24-.91,0-1.72.14-2.42.43-.7.28-1.25.69-1.64,1.2-.39.52-.59,1.12-.59,1.81,0,.6.15,1.09.46,1.46.3.38.67.66,1.1.85.43.19.99.38,1.68.59.5.14.89.27,1.17.38.28.11.51.26.7.43.19.18.28.4.28.66,0,.47-.23.84-.69,1.11-.46.27-1.08.4-1.87.4-.64,0-1.27-.1-1.88-.31-.61-.21-1.15-.49-1.59-.85l-.84,1.56c.43.37,1.02.67,1.77.9.75.23,1.54.35,2.36.35h0ZM192.65,44.22h1.91l1.62-8.14h-1.91l-1.62,8.14h0ZM195.66,34.74c.39,0,.7-.12.94-.35.24-.23.36-.54.36-.91,0-.28-.11-.53-.32-.72-.21-.2-.49-.3-.82-.3-.39,0-.7.12-.94.35-.24.23-.36.52-.36.87,0,.29.11.55.32.75.21.21.49.31.82.31h0ZM199.38,44.32c1.18,0,2.12-.24,2.84-.72.71-.48,1.07-1.15,1.07-2.03,0-.49-.13-.87-.4-1.16-.26-.28-.58-.49-.95-.62-.37-.13-.83-.25-1.4-.36-.57-.12-.99-.24-1.26-.36-.27-.12-.4-.31-.4-.57,0-.29.15-.53.46-.72.31-.18.76-.27,1.36-.27.43,0,.85.05,1.27.15.42.1.8.26,1.14.47l.7-1.46c-.34-.21-.77-.38-1.3-.51-.53-.13-1.07-.19-1.63-.19-1.17,0-2.11.25-2.81.74-.71.49-1.06,1.16-1.06,2,0,.51.13.91.4,1.2.27.29.59.5.96.63.37.13.85.25,1.42.36.56.12.97.24,1.23.35.26.11.39.29.39.53,0,.31-.16.56-.47.72-.31.17-.77.25-1.38.25-.54,0-1.06-.07-1.57-.21s-.93-.34-1.27-.58l-.79,1.46c.35.25.83.46,1.46.63.62.17,1.28.25,1.97.25h0ZM207.44,37.66h2.2l.3-1.52h-2.19l.38-1.86h-1.91l-.37,1.86h-1.33l-.3,1.52h1.33l-.78,3.84c-.04.2-.06.42-.06.64,0,.68.21,1.21.64,1.6.43.39.99.58,1.69.58.79,0,1.45-.16,1.97-.49l-.34-1.4c-.32.21-.67.32-1.07.32-.64,0-.96-.3-.96-.91,0-.07,0-.19.03-.35l.76-3.83h0ZM218.25,39.55c0-1.11-.34-1.98-1.02-2.61-.68-.64-1.59-.95-2.73-.95-.89,0-1.7.2-2.42.61-.72.41-1.28.97-1.68,1.7-.4.73-.6,1.54-.6,2.45,0,.71.16,1.34.49,1.88.32.54.79.96,1.39,1.26.6.29,1.31.44,2.13.44.64,0,1.25-.09,1.84-.28.58-.19,1.08-.47,1.5-.85l-.79-1.33c-.28.26-.63.47-1.04.62-.41.15-.84.22-1.31.22-1.53,0-2.32-.67-2.35-2h6.46c.08-.38.12-.76.12-1.16h0ZM214.41,37.51c.64,0,1.15.17,1.53.51.38.34.57.82.56,1.43h-4.66c.17-.6.49-1.07.94-1.42.45-.35,1-.52,1.64-.52h0ZM230.38,35.99c-1.31,0-2.38.45-3.22,1.34-.22-.44-.55-.77-.99-1-.44-.23-.95-.34-1.54-.34-1.09,0-1.98.33-2.67.98l.17-.88h-1.81l-1.62,8.14h1.91l.85-4.22c.31-1.56,1.15-2.35,2.5-2.35,1.04,0,1.55.49,1.55,1.46,0,.22-.02.44-.06.64l-.9,4.47h1.91l.85-4.24c.31-1.55,1.15-2.33,2.5-2.33,1.04,0,1.56.49,1.56,1.46,0,.22-.02.44-.06.64l-.9,4.47h1.91l.9-4.51c.07-.35.11-.68.11-1.01,0-.87-.26-1.54-.79-2.01-.52-.47-1.24-.7-2.16-.7h0ZM242.04,36.08l-.23,1.2c-.55-.86-1.47-1.3-2.77-1.3-.86,0-1.64.2-2.34.61-.7.41-1.24.97-1.65,1.7-.4.73-.6,1.54-.6,2.45,0,.73.16,1.37.47,1.91.31.54.74.96,1.29,1.24.54.28,1.15.43,1.82.43,1.06,0,1.94-.31,2.65-.95l-.17.84h1.81l1.62-8.14h-1.91ZM238.52,42.69c-.68,0-1.21-.18-1.59-.54-.38-.36-.56-.86-.56-1.5,0-.59.12-1.12.37-1.58.24-.46.58-.82,1-1.08.42-.26.9-.39,1.44-.39.68,0,1.21.18,1.59.54.38.36.56.86.56,1.5,0,.59-.12,1.12-.37,1.58-.24.46-.58.82-1,1.08-.42.26-.9.39-1.44.39h0ZM250.47,44.22h1.98l1.78-8.99h3.54l.35-1.68h-9.05l-.34,1.68h3.54l-1.8,8.99h0ZM259.86,37.13l.21-1.05h-1.81l-1.62,8.14h1.91l.81-4.01c.33-1.64,1.27-2.45,2.82-2.45.14,0,.3.02.47.05l.35-1.81c-.71,0-1.32.09-1.84.26-.51.17-.95.47-1.3.88h0ZM270.1,36.08l-.23,1.2c-.55-.86-1.47-1.3-2.77-1.3-.86,0-1.64.2-2.34.61-.7.41-1.25.97-1.65,1.7-.4.73-.6,1.54-.6,2.45,0,.73.16,1.37.47,1.91.31.54.74.96,1.29,1.24.54.28,1.15.43,1.82.43,1.06,0,1.94-.31,2.65-.95l-.17.84h1.81l1.62-8.14h-1.91ZM266.58,42.69c-.68,0-1.21-.18-1.59-.54-.38-.36-.56-.86-.56-1.5,0-.59.12-1.12.37-1.58.24-.46.58-.82,1-1.08.42-.26.9-.39,1.44-.39.68,0,1.21.18,1.59.54.38.36.56.86.56,1.5,0,.59-.12,1.12-.37,1.58-.24.46-.58.82-1,1.08-.42.26-.9.39-1.44.39h0ZM278.49,35.99c-1.14,0-2.07.33-2.8.99l.18-.9h-1.81l-1.62,8.14h1.91l.85-4.22c.16-.78.47-1.37.93-1.76.46-.39,1.04-.59,1.74-.59,1.09,0,1.63.49,1.63,1.48,0,.21-.02.42-.06.63l-.88,4.47h1.91l.9-4.51c.07-.41.11-.73.11-.98,0-.87-.27-1.55-.8-2.03-.53-.48-1.26-.72-2.17-.72h0ZM285.19,44.32c1.18,0,2.12-.24,2.84-.72.71-.48,1.07-1.15,1.07-2.03,0-.49-.13-.87-.4-1.16-.26-.28-.58-.49-.95-.62-.37-.13-.83-.25-1.4-.36-.57-.12-.99-.24-1.26-.36-.27-.12-.4-.31-.4-.57,0-.29.15-.53.46-.72.31-.18.76-.27,1.36-.27.43,0,.85.05,1.27.15.42.1.8.26,1.14.47l.7-1.46c-.34-.21-.77-.38-1.3-.51-.53-.13-1.07-.19-1.63-.19-1.17,0-2.11.25-2.81.74-.71.49-1.06,1.16-1.06,2,0,.51.13.91.4,1.2.27.29.59.5.96.63.37.13.85.25,1.43.36.56.12.97.24,1.23.35.26.11.39.29.39.53,0,.31-.16.56-.47.72-.31.17-.77.25-1.38.25-.54,0-1.06-.07-1.57-.21-.51-.14-.93-.34-1.27-.58l-.79,1.46c.35.25.83.46,1.46.63.63.17,1.28.25,1.97.25h0ZM295.73,35.99c-1.06,0-1.94.32-2.65.95l.17-.85h-1.81l-2.21,11.1h1.91l.82-4.16c.26.43.64.75,1.11.98.48.22,1.04.34,1.68.34.85,0,1.63-.21,2.32-.62.7-.41,1.24-.98,1.65-1.71.4-.73.6-1.54.6-2.45,0-.73-.16-1.37-.47-1.91-.32-.54-.74-.95-1.29-1.23-.54-.28-1.15-.43-1.82-.43h0ZM294.58,42.69c-.68,0-1.21-.18-1.59-.54-.38-.36-.56-.86-.56-1.5,0-.59.12-1.12.37-1.58.24-.46.58-.82,1-1.08.42-.26.9-.39,1.44-.39.68,0,1.21.18,1.59.54.38.36.56.86.56,1.5,0,.59-.12,1.12-.37,1.58-.24.46-.58.82-1,1.08-.42.26-.9.39-1.44.39h0ZM303.84,44.32c.92,0,1.76-.21,2.49-.63.74-.42,1.31-.99,1.73-1.71.42-.72.63-1.53.63-2.44,0-.71-.16-1.34-.49-1.87-.33-.54-.79-.96-1.39-1.25-.6-.29-1.3-.44-2.09-.44-.92,0-1.76.21-2.49.62-.74.41-1.31.98-1.72,1.7-.41.72-.62,1.53-.62,2.44,0,.71.16,1.34.49,1.88.33.54.79.96,1.38,1.26.59.3,1.29.45,2.08.45h0ZM303.96,42.69c-.68,0-1.21-.18-1.59-.54-.38-.36-.56-.86-.56-1.5,0-.59.12-1.12.37-1.58.24-.46.58-.82,1-1.08.42-.26.9-.39,1.44-.39.68,0,1.21.18,1.59.54.38.36.56.86.56,1.5,0,.59-.12,1.12-.37,1.58-.24.46-.58.82-1,1.08-.42.26-.9.39-1.44.39h0ZM312.4,37.13l.21-1.05h-1.81l-1.62,8.14h1.91l.81-4.01c.33-1.64,1.27-2.45,2.82-2.45.14,0,.3.02.47.05l.35-1.81c-.71,0-1.32.09-1.84.26-.51.17-.95.47-1.3.88h0ZM318.8,37.66h2.2l.3-1.52h-2.2l.38-1.86h-1.91l-.37,1.86h-1.33l-.3,1.52h1.33l-.78,3.84c-.04.2-.06.42-.06.64,0,.68.21,1.21.64,1.6.43.39.99.58,1.69.58.79,0,1.45-.16,1.97-.49l-.34-1.4c-.31.21-.67.32-1.07.32-.64,0-.96-.3-.96-.91,0-.07.01-.19.03-.35l.76-3.83h0ZM329.61,39.55c0-1.11-.34-1.98-1.02-2.61-.68-.64-1.59-.95-2.73-.95-.89,0-1.7.2-2.42.61-.72.41-1.28.97-1.68,1.7-.4.73-.6,1.54-.6,2.45,0,.71.16,1.34.49,1.88.33.54.79.96,1.39,1.26.6.29,1.31.44,2.13.44.64,0,1.25-.09,1.84-.28.58-.19,1.08-.47,1.5-.85l-.79-1.33c-.28.26-.63.47-1.04.62-.41.15-.84.22-1.31.22-1.53,0-2.32-.67-2.35-2h6.46c.08-.38.12-.76.12-1.16h0ZM325.77,37.51c.64,0,1.15.17,1.53.51.38.34.57.82.56,1.43h-4.66c.17-.6.49-1.07.94-1.42.45-.35,1-.52,1.64-.52h0Z"/>
      <polygon class="cls-2" points="402.94 40.12 336.85 40.12 337.51 38.26 403.58 38.26 402.94 40.12 402.94 40.12"/>
      <polygon class="cls-2" points="175.19 40.12 109.1 40.12 109.75 38.26 175.83 38.26 175.19 40.12 175.19 40.12"/>
      <polygon class="cls-1" points="15.61 0 30.3 0 14.68 43.92 0 43.92 15.61 0 15.61 0"/>
      <polygon class="cls-1" points="36.47 11.92 28.38 11.92 32.62 0 63.49 0 59.25 11.92 51.16 11.92 39.78 43.92 25.1 43.92 36.47 11.92 36.47 11.92"/>
      <polygon class="cls-1" points="65.75 0 80.43 0 69.06 32 80.79 32 76.55 43.92 50.14 43.92 65.75 0 65.75 0"/>
    </g>
  </g>
</svg>