<?xml version="1.0" encoding="UTF-8"?>
<svg id="Camada_2" data-name="Camada 2" xmlns="http://www.w3.org/2000/svg" viewBox="0 0 276.33 92.27">
  <defs>
    <style>
      .cls-1 {
        fill: #1c3a69;
      }

      .cls-1, .cls-2, .cls-3 {
        stroke-width: 0px;
      }

      .cls-2 {
        fill: #3ea2b9;
      }

      .cls-3 {
        fill: #ea5f41;
      }
    </style>
  </defs>
  <g id="Camada_1-2" data-name="Camada 1">
    <g>
      <g>
        <path class="cls-2" d="M15.21,4.02h4.85l-.22,1.27h-3.38l-1.1,6.15h2.94l-.22,1.27h-2.94l-1.45,8.21h-1.47l2.99-16.91Z"/>
        <path class="cls-2" d="M29.65,18.68c0-.25.02-.51.07-.78l2.01-11.3c.32-1.84,1.37-2.82,2.97-2.82,1.72,0,2.7.96,2.7,2.5,0,.24-.02.51-.07.78l-2.01,11.3c-.32,1.84-1.37,2.82-2.97,2.82-1.72,0-2.7-.96-2.7-2.5ZM33.91,17.99l1.91-10.81c.07-.37.1-.61.1-.86,0-.86-.42-1.23-1.3-1.23s-1.25.54-1.5,1.86l-1.91,10.81c-.07.37-.1.61-.1.86,0,.86.42,1.23,1.3,1.23s1.25-.54,1.5-1.86ZM36.19,0h1.84l-2.52,2.3h-1.37l2.06-2.3Z"/>
        <path class="cls-2" d="M50.55,4.02h2.13c2.23,0,2.99.91,2.99,2.35,0,.29-.02.61-.1.98l-.39,2.21c-.27,1.47-.88,2.16-1.76,2.4v.05c.64.37.93.96.93,1.81,0,.27-.02.54-.07.86l-1.1,6.25h-1.47l1.1-6.23c.05-.34.1-.64.1-.91,0-.88-.42-1.25-1.81-1.25h-.59l-1.47,8.38h-1.47l2.99-16.91ZM51.85,11.3c1.23,0,1.64-.44,1.91-1.99l.32-1.84c.07-.39.1-.66.1-.93,0-.88-.42-1.25-1.57-1.25h-.81l-1.08,6.01h1.13Z"/>
        <path class="cls-2" d="M66.26,18.7c0-.22.02-.47.07-.74l2.45-13.95h1.47l-2.45,13.85c-.07.37-.1.59-.1.83,0,.83.44,1.15,1.25,1.15s1.23-.51,1.45-1.76l2.48-14.07h1.42l-2.52,14.44c-.29,1.74-1.37,2.72-2.87,2.72-1.67,0-2.65-.93-2.65-2.48Z"/>
        <path class="cls-2" d="M87.07,4.02h2.26l-.32,12.55h.05l4.09-12.55h2.5l-2.99,16.91h-1.47l2.65-15.13h-.05l-4.95,15.13h-1.15l.39-15.13h-.05l-2.65,15.13h-1.3l2.99-16.91Z"/>
        <path class="cls-2" d="M122.42,4.02h1.47l-2.99,16.91h-1.47l2.99-16.91Z"/>
        <path class="cls-2" d="M137.93,5.29h-2.06l.22-1.27h5.59l-.22,1.27h-2.06l-2.77,15.64h-1.47l2.77-15.64Z"/>
        <path class="cls-2" d="M153.89,4.02h1.47l-2.77,15.64h3.14l-.22,1.27h-4.61l2.99-16.91Z"/>
        <path class="cls-2" d="M184.68,4.02h2.18c2.23,0,2.99.91,2.99,2.35,0,.29-.05.64-.1.98l-1.89,10.74c-.37,2.03-1.3,2.84-3.33,2.84h-2.84l2.99-16.91ZM184.55,19.66c1.23,0,1.64-.44,1.91-1.99l1.79-10.22c.07-.37.1-.64.1-.91,0-.88-.42-1.25-1.57-1.25h-.86l-2.55,14.37h1.18Z"/>
        <path class="cls-2" d="M203.04,4.02h4.85l-.22,1.27h-3.38l-1.05,5.91h2.94l-.22,1.27h-2.94l-1.27,7.18h3.38l-.22,1.27h-4.85l2.99-16.91Z"/>
        <path class="cls-2" d="M232.25,15.22l4.36-1.99-3.65-1.99.2-1.23,4.98,2.77-.17,1.08-5.96,2.77.25-1.42Z"/>
        <path class="cls-2" d="M250.39,15.22l4.36-1.99-3.65-1.99.2-1.23,4.98,2.77-.17,1.08-5.96,2.77.25-1.42Z"/>
        <path class="cls-2" d="M268.53,15.22l4.36-1.99-3.65-1.99.2-1.23,4.98,2.77-.17,1.08-5.96,2.77.25-1.42Z"/>
      </g>
      <g>
        <path class="cls-1" d="M8.64,38.39h2.5l-4.44,20.86h-2.5l4.44-20.86Z"/>
        <path class="cls-1" d="M16.37,38.39h4l15.67,19.08,4.07-19.08h2.5l-4.44,20.86h-4.04l-15.64-19.08-4.07,19.08h-2.5l4.44-20.86Z"/>
        <path class="cls-1" d="M70.61,38.98c1.41.63,2.1,1.85,2.1,3.78,0,2.63-1.69,10.26-2.78,12.54-.91,1.91-2.35,3.1-4.41,3.66-1.5.38-3.72.5-9.45.5-6.66,0-8.45-.16-9.98-.81-1.41-.63-2.1-1.85-2.1-3.79,0-2.6,1.69-10.29,2.78-12.54.91-1.91,2.35-3.1,4.41-3.66,1.5-.38,3.72-.5,9.57-.5,6.54,0,8.35.16,9.85.81ZM50.59,41.29c-1.28.81-1.75,1.85-2.72,5.94-.72,3.1-1.22,6.01-1.22,7.07,0,1.25.41,2,1.31,2.38,1.25.5,2.53.59,8.45.59,6.98,0,8.41-.13,9.7-.94,1.28-.81,1.75-1.88,2.72-5.94.72-3.13,1.22-6.01,1.22-7.07,0-2.63-1.13-2.97-9.67-2.97-6.66,0-8.57.19-9.79.94Z"/>
        <path class="cls-1" d="M77.24,38.39l6.44,19.02,14.55-19.02h2.78l-15.95,20.86h-3.53l-7.1-20.86h2.82Z"/>
        <path class="cls-1" d="M98.76,54.56l-3.75,4.69h-2.78l16.7-20.86h3.57l7.85,20.86h-2.75l-1.78-4.69h-17.05ZM110.36,40.14l-10.01,12.45h14.7l-4.69-12.45Z"/>
        <path class="cls-1" d="M147.14,52.24l-.19.88c-.72,3.38-1.66,4.79-3.72,5.63-1.28.5-4.19.72-9.98.72s-7.69-.19-9.13-.81c-1.41-.63-2.1-1.85-2.1-3.79,0-1.44.66-5.16,1.53-8.82,1.06-4.29,2.28-6.13,4.75-7.07,1.78-.69,3.6-.81,11.39-.81,4.29,0,5.91.16,7.23.69s1.94,1.6,1.94,3.35c0,.63-.09,1.38-.34,2.75h-2.47c.28-1.09.34-1.56.34-2.19,0-2.06-1.28-2.41-8.95-2.41-8.13,0-9.45.41-10.54,3.22-.78,2.03-2.22,9.01-2.22,10.79,0,1.19.44,1.94,1.31,2.31,1.13.47,2.78.59,7.29.59,9.38,0,10.42-.34,11.17-3.85l.25-1.19h2.44ZM128.82,63.38l5.32-2.66.72,1.88-5.51,2.22-.53-1.44Z"/>
        <path class="cls-1" d="M153.06,54.56l-3.75,4.69h-2.78l16.7-20.86h3.57l7.85,20.86h-2.75l-1.78-4.69h-17.05ZM164.66,40.14l-10.01,12.45h14.7l-4.69-12.45ZM159.56,36.01c.69-1.94,2.16-3.03,4.03-3.03.78,0,1.16.09,2.53.72,1,.44,1.69.63,2.19.63.91,0,1.5-.47,1.88-1.44l1.91.34c-.69,1.88-2.22,3.03-4.07,3.03-.78,0-1.16-.09-2.53-.72-1-.44-1.69-.63-2.19-.63-.91,0-1.5.47-1.88,1.44l-1.88-.34Z"/>
        <path class="cls-1" d="M202.95,38.98c1.41.63,2.1,1.85,2.1,3.78,0,2.63-1.69,10.26-2.78,12.54-.91,1.91-2.35,3.1-4.41,3.66-1.5.38-3.72.5-9.45.5-6.66,0-8.45-.16-9.98-.81-1.41-.63-2.1-1.85-2.1-3.79,0-2.6,1.69-10.29,2.78-12.54.91-1.91,2.35-3.1,4.41-3.66,1.5-.38,3.72-.5,9.57-.5,6.54,0,8.35.16,9.85.81ZM182.93,41.29c-1.28.81-1.75,1.85-2.72,5.94-.72,3.1-1.22,6.01-1.22,7.07,0,1.25.41,2,1.31,2.38,1.25.5,2.53.59,8.44.59,6.98,0,8.41-.13,9.7-.94,1.28-.81,1.75-1.88,2.72-5.94.72-3.13,1.22-6.01,1.22-7.07,0-2.63-1.13-2.97-9.66-2.97-6.66,0-8.57.19-9.79.94Z"/>
        <path class="cls-1" d="M218.12,38.39h16.2c4.07,0,6.01.59,7.1,2.19.56.84.81,1.85.81,3.47,0,2.97-1,7.38-2.28,10.13-.88,1.88-1.94,3.03-3.44,3.85-1.66.91-3.38,1.22-6.6,1.22h-16.23l4.44-20.86ZM230.53,57.15c3.82,0,5.85-1,7.01-3.47,1.1-2.31,2.06-6.66,2.06-9.32,0-2.97-1.34-3.88-5.69-3.88h-13.73l-3.57,16.67h13.92Z"/>
        <path class="cls-1" d="M271.29,38.98c1.41.63,2.1,1.85,2.1,3.78,0,2.63-1.69,10.26-2.78,12.54-.91,1.91-2.35,3.1-4.41,3.66-1.5.38-3.72.5-9.45.5-6.66,0-8.45-.16-9.98-.81-1.41-.63-2.1-1.85-2.1-3.79,0-2.6,1.69-10.29,2.78-12.54.91-1.91,2.35-3.1,4.41-3.66,1.5-.38,3.72-.5,9.57-.5,6.54,0,8.35.16,9.85.81ZM251.27,41.29c-1.28.81-1.75,1.85-2.72,5.94-.72,3.1-1.22,6.01-1.22,7.07,0,1.25.41,2,1.31,2.38,1.25.5,2.53.59,8.44.59,6.98,0,8.41-.13,9.7-.94,1.28-.81,1.75-1.88,2.72-5.94.72-3.13,1.22-6.01,1.22-7.07,0-2.63-1.13-2.97-9.66-2.97-6.66,0-8.57.19-9.79.94Z"/>
        <path class="cls-1" d="M15.51,73.29H4.91l.44-2.1h23.68l-.44,2.1h-10.57l-4,18.77h-2.5l4-18.77Z"/>
        <path class="cls-1" d="M31.12,71.19h17.17c2.66,0,3.79.25,4.79,1,.75.59,1.16,1.5,1.16,2.66,0,1.63-.31,3.63-.81,5-.47,1.31-1.53,2.38-2.75,2.69-.22.06-.47.09-1.19.19.59.09.84.16,1.13.28.72.34,1.25,1.13,1.25,1.91,0,.38-.09.97-.25,1.72l-1.13,5.41h-2.5l.84-3.97c.16-.84.28-1.75.28-2.25,0-1-.5-1.69-1.41-1.97-.59-.16-1.19-.22-2.41-.22h-14.33l-1.78,8.41h-2.5l4.44-20.86ZM45.13,81.67c2.69,0,3.94-.31,4.88-1.22.56-.56.88-1.16,1.19-2.35.25-.88.38-1.75.38-2.44,0-1.75-1.28-2.38-4.82-2.38h-13.58l-1.78,8.38h13.73Z"/>
        <path class="cls-1" d="M58.86,87.36l-3.75,4.69h-2.78l16.7-20.86h3.57l7.85,20.86h-2.75l-1.78-4.69h-17.05ZM70.47,72.94l-10.01,12.45h14.7l-4.69-12.45Z"/>
        <path class="cls-1" d="M86.54,71.19h4l15.67,19.08,4.07-19.08h2.5l-4.44,20.86h-4.04l-15.64-19.08-4.07,19.08h-2.5l4.44-20.86Z"/>
        <path class="cls-1" d="M116.6,85.55l-.09.56c-.13.56-.22,1.22-.22,1.56,0,1.03.31,1.47,1.28,1.81,1.09.41,3.41.59,7.13.59,5.35,0,7.69-.31,8.98-1.25.66-.47,1-1,1.31-1.94.22-.72.38-1.56.38-2.03,0-1.13-.66-1.72-2.25-2-1.09-.19-1.63-.19-9.95-.25-2.97-.03-4.19-.16-5.44-.63-1.38-.47-2.1-1.5-2.1-2.88,0-1.88.88-4.38,1.94-5.54,1.78-1.97,4.72-2.6,12.04-2.6s9.79.91,9.79,4c0,.44-.09,1.16-.25,2.19h-2.44c.13-.69.16-1.03.16-1.41,0-2.06-1.6-2.6-7.69-2.6-4.85,0-7.48.28-8.76,1-.75.41-1.22.94-1.56,1.85-.31.75-.5,1.66-.5,2.31,0,.97.5,1.53,1.69,1.81.84.22,2.31.28,6.98.28,5.6.03,6.76.09,8.35.47,1.78.44,2.66,1.53,2.66,3.25s-.72,4.16-1.6,5.32c-1.75,2.25-4.04,2.82-11.76,2.82-5.04,0-7.38-.22-8.91-.78-1.41-.53-2.1-1.6-2.1-3.22,0-.38.06-.84.16-1.28l.28-1.44h2.5Z"/>
        <path class="cls-1" d="M145.35,71.19h16.83c2.94,0,4.07.22,4.91,1,.66.56.94,1.35.94,2.56,0,1.91-.91,5.32-1.78,6.6-1.16,1.72-3.1,2.5-6.19,2.5h-14.89l-1.75,8.19h-2.5l4.44-20.86ZM158.64,81.76c2.75,0,4.25-.34,5.07-1.19.81-.84,1.56-3.19,1.56-4.91s-1.09-2.38-4.35-2.38h-13.51l-1.81,8.48h13.04Z"/>
        <path class="cls-1" d="M195.08,71.79c1.41.63,2.1,1.85,2.1,3.78,0,2.63-1.69,10.26-2.78,12.54-.91,1.91-2.35,3.1-4.41,3.66-1.5.38-3.72.5-9.45.5-6.66,0-8.45-.16-9.98-.81-1.41-.63-2.1-1.85-2.1-3.78,0-2.6,1.69-10.29,2.78-12.54.91-1.91,2.35-3.1,4.41-3.66,1.5-.38,3.72-.5,9.57-.5,6.54,0,8.35.16,9.85.81ZM175.06,74.1c-1.28.81-1.75,1.85-2.72,5.94-.72,3.1-1.22,6.01-1.22,7.07,0,1.25.41,2,1.31,2.38,1.25.5,2.53.59,8.44.59,6.98,0,8.41-.12,9.7-.94,1.28-.81,1.75-1.88,2.72-5.94.72-3.13,1.22-6.01,1.22-7.07,0-2.63-1.13-2.97-9.66-2.97-6.66,0-8.57.19-9.79.94Z"/>
        <path class="cls-1" d="M203.05,71.19h17.17c2.66,0,3.78.25,4.79,1,.75.59,1.16,1.5,1.16,2.66,0,1.63-.31,3.63-.81,5-.47,1.31-1.53,2.38-2.75,2.69-.22.06-.47.09-1.19.19.59.09.84.16,1.13.28.72.34,1.25,1.13,1.25,1.91,0,.38-.09.97-.25,1.72l-1.13,5.41h-2.5l.84-3.97c.16-.84.28-1.75.28-2.25,0-1-.5-1.69-1.41-1.97-.59-.16-1.19-.22-2.41-.22h-14.33l-1.78,8.41h-2.5l4.44-20.86ZM217.07,81.67c2.69,0,3.94-.31,4.88-1.22.56-.56.88-1.16,1.19-2.35.25-.88.38-1.75.38-2.44,0-1.75-1.28-2.38-4.82-2.38h-13.58l-1.78,8.38h13.73Z"/>
        <path class="cls-1" d="M238.84,73.29h-10.6l.44-2.1h23.68l-.44,2.1h-10.57l-4,18.77h-2.5l4-18.77Z"/>
        <path class="cls-1" d="M254.44,71.19h20.77l-.44,2.1h-18.27l-1.5,6.98h17.61l-.44,1.97h-17.58l-1.66,7.73h18.42l-.44,2.1h-20.93l4.44-20.86Z"/>
      </g>
      <g>
        <rect class="cls-3" y="63.92" width="120.2" height="2.27"/>
        <rect class="cls-3" x="141.51" y="63.92" width="134.82" height="2.27"/>
      </g>
    </g>
  </g>
</svg>