<?xml version="1.0" encoding="UTF-8"?>
<svg id="Camada_2" data-name="Camada 2" xmlns="http://www.w3.org/2000/svg" xmlns:xlink="http://www.w3.org/1999/xlink" viewBox="0 0 932.21 592.31">
  <defs>
    <style>
      .cls-1 {
        clip-path: url(#clippath);
      }

      .cls-2 {
        stroke-width: 0px;
      }

      .cls-2, .cls-3 {
        fill: none;
      }

      .cls-3 {
        stroke: #76ff93;
        stroke-miterlimit: 10;
      }
    </style>
    <clipPath id="clippath">
      <circle class="cls-2" cx="440.04" cy="293.33" r="255.96"/>
    </clipPath>
  </defs>
  <g id="Camada_1-2" data-name="Camada 1">
    <g class="cls-1">
      <g>
        <path class="cls-3" d="M3.44,37.72l24.52-11.02L7.32,15.52,9.96.78l36.47,20.49c4.51,2.8,4.23,9.44-.49,11.86l-1.68.86L.65,54.48l2.79-16.76Z"/>
        <path class="cls-3" d="M52.45,37.72l24.52-11.02-20.64-11.18,2.64-14.74,36.47,20.49c4.51,2.8,4.23,9.44-.49,11.86l-1.68.86-43.61,20.48,2.79-16.76Z"/>
        <path class="cls-3" d="M101.45,37.72l24.52-11.02-20.64-11.18,2.64-14.74,36.47,20.49c4.51,2.8,4.23,9.44-.49,11.86l-1.68.86-43.61,20.48,2.79-16.76Z"/>
        <path class="cls-3" d="M150.45,37.72l24.52-11.02-20.64-11.18,2.64-14.74,36.47,20.49c4.51,2.8,4.23,9.44-.49,11.86l-1.68.86-43.61,20.48,2.79-16.76Z"/>
        <path class="cls-3" d="M199.46,37.72l24.52-11.02-20.64-11.18,2.64-14.74,36.47,20.49c4.51,2.8,4.23,9.44-.49,11.86l-1.68.86-43.61,20.48,2.79-16.76Z"/>
        <path class="cls-3" d="M248.46,37.72l24.52-11.02-20.64-11.18,2.64-14.74,36.47,20.49c4.51,2.8,4.23,9.44-.49,11.86l-1.68.86-43.61,20.48,2.79-16.76Z"/>
        <path class="cls-3" d="M297.46,37.72l24.52-11.02-20.64-11.18,2.64-14.74,36.47,20.49c4.51,2.8,4.23,9.44-.49,11.86l-1.68.86-43.61,20.48,2.79-16.76Z"/>
        <path class="cls-3" d="M346.46,37.72l24.52-11.02-20.64-11.18,2.64-14.74,36.47,20.49c4.51,2.8,4.23,9.44-.49,11.86l-1.68.86-43.61,20.48,2.79-16.76Z"/>
        <path class="cls-3" d="M395.47,37.72l24.52-11.02-20.64-11.18,2.64-14.74,36.47,20.49c4.51,2.8,4.23,9.44-.49,11.86l-1.68.86-43.61,20.48,2.79-16.76Z"/>
        <path class="cls-3" d="M444.47,37.72l24.52-11.02-20.64-11.18,2.64-14.74,36.47,20.49c4.51,2.8,4.23,9.44-.49,11.86l-1.68.86-43.61,20.48,2.79-16.76Z"/>
        <path class="cls-3" d="M493.47,37.72l24.52-11.02-20.64-11.18,2.64-14.74,36.47,20.49c4.51,2.8,4.23,9.44-.49,11.86l-1.68.86-43.61,20.48,2.79-16.76Z"/>
        <path class="cls-3" d="M542.48,37.72l24.52-11.02-20.64-11.18,2.64-14.74,36.47,20.49c4.51,2.8,4.23,9.44-.49,11.86l-1.68.86-43.61,20.48,2.79-16.76Z"/>
        <path class="cls-3" d="M591.48,37.72l24.52-11.02-20.64-11.18,2.64-14.74,36.47,20.49c4.51,2.8,4.23,9.44-.49,11.86l-1.68.86-43.61,20.48,2.79-16.76Z"/>
        <path class="cls-3" d="M640.48,37.72l24.52-11.02-20.64-11.18,2.64-14.74,36.47,20.49c4.51,2.8,4.23,9.44-.49,11.86l-1.68.86-43.61,20.48,2.79-16.76Z"/>
        <path class="cls-3" d="M689.49,37.72l24.52-11.02-20.64-11.18,2.64-14.74,36.47,20.49c4.51,2.8,4.23,9.44-.49,11.86l-1.68.86-43.61,20.48,2.79-16.76Z"/>
        <path class="cls-3" d="M738.49,37.72l24.52-11.02-20.64-11.18,2.64-14.74,36.47,20.49c4.51,2.8,4.23,9.44-.49,11.86l-1.68.86-43.61,20.48,2.79-16.76Z"/>
        <path class="cls-3" d="M787.49,37.72l24.52-11.02-20.64-11.18,2.64-14.74,36.47,20.49c4.51,2.8,4.23,9.44-.49,11.86l-1.68.86-43.61,20.48,2.79-16.76Z"/>
        <path class="cls-3" d="M836.49,37.72l24.52-11.02-20.64-11.18,2.64-14.74,36.47,20.49c4.51,2.8,4.23,9.44-.49,11.86l-1.68.86-43.61,20.48,2.79-16.76Z"/>
        <path class="cls-3" d="M885.5,37.72l24.52-11.02-20.64-11.18,2.64-14.74,36.47,20.49c4.51,2.8,4.23,9.44-.49,11.86l-1.68.86-43.61,20.48,2.79-16.76Z"/>
        <path class="cls-3" d="M3.44,91.41l24.52-11.02-20.64-11.18,2.64-14.74,36.47,20.49c4.51,2.8,4.23,9.44-.49,11.86l-1.68.86L.65,108.18l2.79-16.76Z"/>
        <path class="cls-3" d="M52.45,91.41l24.52-11.02-20.64-11.18,2.64-14.74,36.47,20.49c4.51,2.8,4.23,9.44-.49,11.86l-1.68.86-43.61,20.48,2.79-16.76Z"/>
        <path class="cls-3" d="M101.45,91.41l24.52-11.02-20.64-11.18,2.64-14.74,36.47,20.49c4.51,2.8,4.23,9.44-.49,11.86l-1.68.86-43.61,20.48,2.79-16.76Z"/>
        <path class="cls-3" d="M150.45,91.41l24.52-11.02-20.64-11.18,2.64-14.74,36.47,20.49c4.51,2.8,4.23,9.44-.49,11.86l-1.68.86-43.61,20.48,2.79-16.76Z"/>
        <path class="cls-3" d="M199.46,91.41l24.52-11.02-20.64-11.18,2.64-14.74,36.47,20.49c4.51,2.8,4.23,9.44-.49,11.86l-1.68.86-43.61,20.48,2.79-16.76Z"/>
        <path class="cls-3" d="M248.46,91.41l24.52-11.02-20.64-11.18,2.64-14.74,36.47,20.49c4.51,2.8,4.23,9.44-.49,11.86l-1.68.86-43.61,20.48,2.79-16.76Z"/>
        <path class="cls-3" d="M297.46,91.41l24.52-11.02-20.64-11.18,2.64-14.74,36.47,20.49c4.51,2.8,4.23,9.44-.49,11.86l-1.68.86-43.61,20.48,2.79-16.76Z"/>
        <path class="cls-3" d="M346.46,91.41l24.52-11.02-20.64-11.18,2.64-14.74,36.47,20.49c4.51,2.8,4.23,9.44-.49,11.86l-1.68.86-43.61,20.48,2.79-16.76Z"/>
        <path class="cls-3" d="M395.47,91.41l24.52-11.02-20.64-11.18,2.64-14.74,36.47,20.49c4.51,2.8,4.23,9.44-.49,11.86l-1.68.86-43.61,20.48,2.79-16.76Z"/>
        <path class="cls-3" d="M444.47,91.41l24.52-11.02-20.64-11.18,2.64-14.74,36.47,20.49c4.51,2.8,4.23,9.44-.49,11.86l-1.68.86-43.61,20.48,2.79-16.76Z"/>
        <path class="cls-3" d="M493.47,91.41l24.52-11.02-20.64-11.18,2.64-14.74,36.47,20.49c4.51,2.8,4.23,9.44-.49,11.86l-1.68.86-43.61,20.48,2.79-16.76Z"/>
        <path class="cls-3" d="M542.48,91.41l24.52-11.02-20.64-11.18,2.64-14.74,36.47,20.49c4.51,2.8,4.23,9.44-.49,11.86l-1.68.86-43.61,20.48,2.79-16.76Z"/>
        <path class="cls-3" d="M591.48,91.41l24.52-11.02-20.64-11.18,2.64-14.74,36.47,20.49c4.51,2.8,4.23,9.44-.49,11.86l-1.68.86-43.61,20.48,2.79-16.76Z"/>
        <path class="cls-3" d="M640.48,91.41l24.52-11.02-20.64-11.18,2.64-14.74,36.47,20.49c4.51,2.8,4.23,9.44-.49,11.86l-1.68.86-43.61,20.48,2.79-16.76Z"/>
        <path class="cls-3" d="M689.49,91.41l24.52-11.02-20.64-11.18,2.64-14.74,36.47,20.49c4.51,2.8,4.23,9.44-.49,11.86l-1.68.86-43.61,20.48,2.79-16.76Z"/>
        <path class="cls-3" d="M738.49,91.41l24.52-11.02-20.64-11.18,2.64-14.74,36.47,20.49c4.51,2.8,4.23,9.44-.49,11.86l-1.68.86-43.61,20.48,2.79-16.76Z"/>
        <path class="cls-3" d="M787.49,91.41l24.52-11.02-20.64-11.18,2.64-14.74,36.47,20.49c4.51,2.8,4.23,9.44-.49,11.86l-1.68.86-43.61,20.48,2.79-16.76Z"/>
        <path class="cls-3" d="M836.49,91.41l24.52-11.02-20.64-11.18,2.64-14.74,36.47,20.49c4.51,2.8,4.23,9.44-.49,11.86l-1.68.86-43.61,20.48,2.79-16.76Z"/>
        <path class="cls-3" d="M885.5,91.41l24.52-11.02-20.64-11.18,2.64-14.74,36.47,20.49c4.51,2.8,4.23,9.44-.49,11.86l-1.68.86-43.61,20.48,2.79-16.76Z"/>
        <path class="cls-3" d="M3.44,145.11l24.52-11.02-20.64-11.18,2.64-14.74,36.47,20.49c4.51,2.8,4.23,9.44-.49,11.86l-1.68.86L.65,161.87l2.79-16.76Z"/>
        <path class="cls-3" d="M52.45,145.11l24.52-11.02-20.64-11.18,2.64-14.74,36.47,20.49c4.51,2.8,4.23,9.44-.49,11.86l-1.68.86-43.61,20.48,2.79-16.76Z"/>
        <path class="cls-3" d="M101.45,145.11l24.52-11.02-20.64-11.18,2.64-14.74,36.47,20.49c4.51,2.8,4.23,9.44-.49,11.86l-1.68.86-43.61,20.48,2.79-16.76Z"/>
        <path class="cls-3" d="M150.45,145.11l24.52-11.02-20.64-11.18,2.64-14.74,36.47,20.49c4.51,2.8,4.23,9.44-.49,11.86l-1.68.86-43.61,20.48,2.79-16.76Z"/>
        <path class="cls-3" d="M199.46,145.11l24.52-11.02-20.64-11.18,2.64-14.74,36.47,20.49c4.51,2.8,4.23,9.44-.49,11.86l-1.68.86-43.61,20.48,2.79-16.76Z"/>
        <path class="cls-3" d="M248.46,145.11l24.52-11.02-20.64-11.18,2.64-14.74,36.47,20.49c4.51,2.8,4.23,9.44-.49,11.86l-1.68.86-43.61,20.48,2.79-16.76Z"/>
        <path class="cls-3" d="M297.46,145.11l24.52-11.02-20.64-11.18,2.64-14.74,36.47,20.49c4.51,2.8,4.23,9.44-.49,11.86l-1.68.86-43.61,20.48,2.79-16.76Z"/>
        <path class="cls-3" d="M346.46,145.11l24.52-11.02-20.64-11.18,2.64-14.74,36.47,20.49c4.51,2.8,4.23,9.44-.49,11.86l-1.68.86-43.61,20.48,2.79-16.76Z"/>
        <path class="cls-3" d="M395.47,145.11l24.52-11.02-20.64-11.18,2.64-14.74,36.47,20.49c4.51,2.8,4.23,9.44-.49,11.86l-1.68.86-43.61,20.48,2.79-16.76Z"/>
        <path class="cls-3" d="M444.47,145.11l24.52-11.02-20.64-11.18,2.64-14.74,36.47,20.49c4.51,2.8,4.23,9.44-.49,11.86l-1.68.86-43.61,20.48,2.79-16.76Z"/>
        <path class="cls-3" d="M493.47,145.11l24.52-11.02-20.64-11.18,2.64-14.74,36.47,20.49c4.51,2.8,4.23,9.44-.49,11.86l-1.68.86-43.61,20.48,2.79-16.76Z"/>
        <path class="cls-3" d="M542.48,145.11l24.52-11.02-20.64-11.18,2.64-14.74,36.47,20.49c4.51,2.8,4.23,9.44-.49,11.86l-1.68.86-43.61,20.48,2.79-16.76Z"/>
        <path class="cls-3" d="M591.48,145.11l24.52-11.02-20.64-11.18,2.64-14.74,36.47,20.49c4.51,2.8,4.23,9.44-.49,11.86l-1.68.86-43.61,20.48,2.79-16.76Z"/>
        <path class="cls-3" d="M640.48,145.11l24.52-11.02-20.64-11.18,2.64-14.74,36.47,20.49c4.51,2.8,4.23,9.44-.49,11.86l-1.68.86-43.61,20.48,2.79-16.76Z"/>
        <path class="cls-3" d="M689.49,145.11l24.52-11.02-20.64-11.18,2.64-14.74,36.47,20.49c4.51,2.8,4.23,9.44-.49,11.86l-1.68.86-43.61,20.48,2.79-16.76Z"/>
        <path class="cls-3" d="M738.49,145.11l24.52-11.02-20.64-11.18,2.64-14.74,36.47,20.49c4.51,2.8,4.23,9.44-.49,11.86l-1.68.86-43.61,20.48,2.79-16.76Z"/>
        <path class="cls-3" d="M787.49,145.11l24.52-11.02-20.64-11.18,2.64-14.74,36.47,20.49c4.51,2.8,4.23,9.44-.49,11.86l-1.68.86-43.61,20.48,2.79-16.76Z"/>
        <path class="cls-3" d="M836.49,145.11l24.52-11.02-20.64-11.18,2.64-14.74,36.47,20.49c4.51,2.8,4.23,9.44-.49,11.86l-1.68.86-43.61,20.48,2.79-16.76Z"/>
        <path class="cls-3" d="M885.5,145.11l24.52-11.02-20.64-11.18,2.64-14.74,36.47,20.49c4.51,2.8,4.23,9.44-.49,11.86l-1.68.86-43.61,20.48,2.79-16.76Z"/>
        <path class="cls-3" d="M3.44,198.81l24.52-11.02-20.64-11.18,2.64-14.74,36.47,20.49c4.51,2.8,4.23,9.44-.49,11.86l-1.68.86L.65,215.57l2.79-16.76Z"/>
        <path class="cls-3" d="M52.45,198.81l24.52-11.02-20.64-11.18,2.64-14.74,36.47,20.49c4.51,2.8,4.23,9.44-.49,11.86l-1.68.86-43.61,20.48,2.79-16.76Z"/>
        <path class="cls-3" d="M101.45,198.81l24.52-11.02-20.64-11.18,2.64-14.74,36.47,20.49c4.51,2.8,4.23,9.44-.49,11.86l-1.68.86-43.61,20.48,2.79-16.76Z"/>
        <path class="cls-3" d="M150.45,198.81l24.52-11.02-20.64-11.18,2.64-14.74,36.47,20.49c4.51,2.8,4.23,9.44-.49,11.86l-1.68.86-43.61,20.48,2.79-16.76Z"/>
        <path class="cls-3" d="M199.46,198.81l24.52-11.02-20.64-11.18,2.64-14.74,36.47,20.49c4.51,2.8,4.23,9.44-.49,11.86l-1.68.86-43.61,20.48,2.79-16.76Z"/>
        <path class="cls-3" d="M248.46,198.81l24.52-11.02-20.64-11.18,2.64-14.74,36.47,20.49c4.51,2.8,4.23,9.44-.49,11.86l-1.68.86-43.61,20.48,2.79-16.76Z"/>
        <path class="cls-3" d="M297.46,198.81l24.52-11.02-20.64-11.18,2.64-14.74,36.47,20.49c4.51,2.8,4.23,9.44-.49,11.86l-1.68.86-43.61,20.48,2.79-16.76Z"/>
        <path class="cls-3" d="M346.46,198.81l24.52-11.02-20.64-11.18,2.64-14.74,36.47,20.49c4.51,2.8,4.23,9.44-.49,11.86l-1.68.86-43.61,20.48,2.79-16.76Z"/>
        <path class="cls-3" d="M395.47,198.81l24.52-11.02-20.64-11.18,2.64-14.74,36.47,20.49c4.51,2.8,4.23,9.44-.49,11.86l-1.68.86-43.61,20.48,2.79-16.76Z"/>
        <path class="cls-3" d="M444.47,198.81l24.52-11.02-20.64-11.18,2.64-14.74,36.47,20.49c4.51,2.8,4.23,9.44-.49,11.86l-1.68.86-43.61,20.48,2.79-16.76Z"/>
        <path class="cls-3" d="M493.47,198.81l24.52-11.02-20.64-11.18,2.64-14.74,36.47,20.49c4.51,2.8,4.23,9.44-.49,11.86l-1.68.86-43.61,20.48,2.79-16.76Z"/>
        <path class="cls-3" d="M542.48,198.81l24.52-11.02-20.64-11.18,2.64-14.74,36.47,20.49c4.51,2.8,4.23,9.44-.49,11.86l-1.68.86-43.61,20.48,2.79-16.76Z"/>
        <path class="cls-3" d="M591.48,198.81l24.52-11.02-20.64-11.18,2.64-14.74,36.47,20.49c4.51,2.8,4.23,9.44-.49,11.86l-1.68.86-43.61,20.48,2.79-16.76Z"/>
        <path class="cls-3" d="M640.48,198.81l24.52-11.02-20.64-11.18,2.64-14.74,36.47,20.49c4.51,2.8,4.23,9.44-.49,11.86l-1.68.86-43.61,20.48,2.79-16.76Z"/>
        <path class="cls-3" d="M689.49,198.81l24.52-11.02-20.64-11.18,2.64-14.74,36.47,20.49c4.51,2.8,4.23,9.44-.49,11.86l-1.68.86-43.61,20.48,2.79-16.76Z"/>
        <path class="cls-3" d="M738.49,198.81l24.52-11.02-20.64-11.18,2.64-14.74,36.47,20.49c4.51,2.8,4.23,9.44-.49,11.86l-1.68.86-43.61,20.48,2.79-16.76Z"/>
        <path class="cls-3" d="M787.49,198.81l24.52-11.02-20.64-11.18,2.64-14.74,36.47,20.49c4.51,2.8,4.23,9.44-.49,11.86l-1.68.86-43.61,20.48,2.79-16.76Z"/>
        <path class="cls-3" d="M836.49,198.81l24.52-11.02-20.64-11.18,2.64-14.74,36.47,20.49c4.51,2.8,4.23,9.44-.49,11.86l-1.68.86-43.61,20.48,2.79-16.76Z"/>
        <path class="cls-3" d="M885.5,198.81l24.52-11.02-20.64-11.18,2.64-14.74,36.47,20.49c4.51,2.8,4.23,9.44-.49,11.86l-1.68.86-43.61,20.48,2.79-16.76Z"/>
        <path class="cls-3" d="M3.44,252.51l24.52-11.02-20.64-11.18,2.64-14.74,36.47,20.49c4.51,2.8,4.23,9.44-.49,11.86l-1.68.86L.65,269.27l2.79-16.76Z"/>
        <path class="cls-3" d="M52.45,252.51l24.52-11.02-20.64-11.18,2.64-14.74,36.47,20.49c4.51,2.8,4.23,9.44-.49,11.86l-1.68.86-43.61,20.48,2.79-16.76Z"/>
        <path class="cls-3" d="M101.45,252.51l24.52-11.02-20.64-11.18,2.64-14.74,36.47,20.49c4.51,2.8,4.23,9.44-.49,11.86l-1.68.86-43.61,20.48,2.79-16.76Z"/>
        <path class="cls-3" d="M150.45,252.51l24.52-11.02-20.64-11.18,2.64-14.74,36.47,20.49c4.51,2.8,4.23,9.44-.49,11.86l-1.68.86-43.61,20.48,2.79-16.76Z"/>
        <path class="cls-3" d="M199.46,252.51l24.52-11.02-20.64-11.18,2.64-14.74,36.47,20.49c4.51,2.8,4.23,9.44-.49,11.86l-1.68.86-43.61,20.48,2.79-16.76Z"/>
        <path class="cls-3" d="M248.46,252.51l24.52-11.02-20.64-11.18,2.64-14.74,36.47,20.49c4.51,2.8,4.23,9.44-.49,11.86l-1.68.86-43.61,20.48,2.79-16.76Z"/>
        <path class="cls-3" d="M297.46,252.51l24.52-11.02-20.64-11.18,2.64-14.74,36.47,20.49c4.51,2.8,4.23,9.44-.49,11.86l-1.68.86-43.61,20.48,2.79-16.76Z"/>
        <path class="cls-3" d="M346.46,252.51l24.52-11.02-20.64-11.18,2.64-14.74,36.47,20.49c4.51,2.8,4.23,9.44-.49,11.86l-1.68.86-43.61,20.48,2.79-16.76Z"/>
        <path class="cls-3" d="M395.47,252.51l24.52-11.02-20.64-11.18,2.64-14.74,36.47,20.49c4.51,2.8,4.23,9.44-.49,11.86l-1.68.86-43.61,20.48,2.79-16.76Z"/>
        <path class="cls-3" d="M444.47,252.51l24.52-11.02-20.64-11.18,2.64-14.74,36.47,20.49c4.51,2.8,4.23,9.44-.49,11.86l-1.68.86-43.61,20.48,2.79-16.76Z"/>
        <path class="cls-3" d="M493.47,252.51l24.52-11.02-20.64-11.18,2.64-14.74,36.47,20.49c4.51,2.8,4.23,9.44-.49,11.86l-1.68.86-43.61,20.48,2.79-16.76Z"/>
        <path class="cls-3" d="M542.48,252.51l24.52-11.02-20.64-11.18,2.64-14.74,36.47,20.49c4.51,2.8,4.23,9.44-.49,11.86l-1.68.86-43.61,20.48,2.79-16.76Z"/>
        <path class="cls-3" d="M591.48,252.51l24.52-11.02-20.64-11.18,2.64-14.74,36.47,20.49c4.51,2.8,4.23,9.44-.49,11.86l-1.68.86-43.61,20.48,2.79-16.76Z"/>
        <path class="cls-3" d="M640.48,252.51l24.52-11.02-20.64-11.18,2.64-14.74,36.47,20.49c4.51,2.8,4.23,9.44-.49,11.86l-1.68.86-43.61,20.48,2.79-16.76Z"/>
        <path class="cls-3" d="M689.49,252.51l24.52-11.02-20.64-11.18,2.64-14.74,36.47,20.49c4.51,2.8,4.23,9.44-.49,11.86l-1.68.86-43.61,20.48,2.79-16.76Z"/>
        <path class="cls-3" d="M738.49,252.51l24.52-11.02-20.64-11.18,2.64-14.74,36.47,20.49c4.51,2.8,4.23,9.44-.49,11.86l-1.68.86-43.61,20.48,2.79-16.76Z"/>
        <path class="cls-3" d="M787.49,252.51l24.52-11.02-20.64-11.18,2.64-14.74,36.47,20.49c4.51,2.8,4.23,9.44-.49,11.86l-1.68.86-43.61,20.48,2.79-16.76Z"/>
        <path class="cls-3" d="M836.49,252.51l24.52-11.02-20.64-11.18,2.64-14.74,36.47,20.49c4.51,2.8,4.23,9.44-.49,11.86l-1.68.86-43.61,20.48,2.79-16.76Z"/>
        <path class="cls-3" d="M885.5,252.51l24.52-11.02-20.64-11.18,2.64-14.74,36.47,20.49c4.51,2.8,4.23,9.44-.49,11.86l-1.68.86-43.61,20.48,2.79-16.76Z"/>
        <path class="cls-3" d="M3.44,306.2l24.52-11.02-20.64-11.18,2.64-14.74,36.47,20.49c4.51,2.8,4.23,9.44-.49,11.86l-1.68.86L.65,322.97l2.79-16.76Z"/>
        <path class="cls-3" d="M52.45,306.2l24.52-11.02-20.64-11.18,2.64-14.74,36.47,20.49c4.51,2.8,4.23,9.44-.49,11.86l-1.68.86-43.61,20.48,2.79-16.76Z"/>
        <path class="cls-3" d="M101.45,306.2l24.52-11.02-20.64-11.18,2.64-14.74,36.47,20.49c4.51,2.8,4.23,9.44-.49,11.86l-1.68.86-43.61,20.48,2.79-16.76Z"/>
        <path class="cls-3" d="M150.45,306.2l24.52-11.02-20.64-11.18,2.64-14.74,36.47,20.49c4.51,2.8,4.23,9.44-.49,11.86l-1.68.86-43.61,20.48,2.79-16.76Z"/>
        <path class="cls-3" d="M199.46,306.2l24.52-11.02-20.64-11.18,2.64-14.74,36.47,20.49c4.51,2.8,4.23,9.44-.49,11.86l-1.68.86-43.61,20.48,2.79-16.76Z"/>
        <path class="cls-3" d="M248.46,306.2l24.52-11.02-20.64-11.18,2.64-14.74,36.47,20.49c4.51,2.8,4.23,9.44-.49,11.86l-1.68.86-43.61,20.48,2.79-16.76Z"/>
        <path class="cls-3" d="M297.46,306.2l24.52-11.02-20.64-11.18,2.64-14.74,36.47,20.49c4.51,2.8,4.23,9.44-.49,11.86l-1.68.86-43.61,20.48,2.79-16.76Z"/>
        <path class="cls-3" d="M346.46,306.2l24.52-11.02-20.64-11.18,2.64-14.74,36.47,20.49c4.51,2.8,4.23,9.44-.49,11.86l-1.68.86-43.61,20.48,2.79-16.76Z"/>
        <path class="cls-3" d="M395.47,306.2l24.52-11.02-20.64-11.18,2.64-14.74,36.47,20.49c4.51,2.8,4.23,9.44-.49,11.86l-1.68.86-43.61,20.48,2.79-16.76Z"/>
        <path class="cls-3" d="M444.47,306.2l24.52-11.02-20.64-11.18,2.64-14.74,36.47,20.49c4.51,2.8,4.23,9.44-.49,11.86l-1.68.86-43.61,20.48,2.79-16.76Z"/>
        <path class="cls-3" d="M493.47,306.2l24.52-11.02-20.64-11.18,2.64-14.74,36.47,20.49c4.51,2.8,4.23,9.44-.49,11.86l-1.68.86-43.61,20.48,2.79-16.76Z"/>
        <path class="cls-3" d="M542.48,306.2l24.52-11.02-20.64-11.18,2.64-14.74,36.47,20.49c4.51,2.8,4.23,9.44-.49,11.86l-1.68.86-43.61,20.48,2.79-16.76Z"/>
        <path class="cls-3" d="M591.48,306.2l24.52-11.02-20.64-11.18,2.64-14.74,36.47,20.49c4.51,2.8,4.23,9.44-.49,11.86l-1.68.86-43.61,20.48,2.79-16.76Z"/>
        <path class="cls-3" d="M640.48,306.2l24.52-11.02-20.64-11.18,2.64-14.74,36.47,20.49c4.51,2.8,4.23,9.44-.49,11.86l-1.68.86-43.61,20.48,2.79-16.76Z"/>
        <path class="cls-3" d="M689.49,306.2l24.52-11.02-20.64-11.18,2.64-14.74,36.47,20.49c4.51,2.8,4.23,9.44-.49,11.86l-1.68.86-43.61,20.48,2.79-16.76Z"/>
        <path class="cls-3" d="M738.49,306.2l24.52-11.02-20.64-11.18,2.64-14.74,36.47,20.49c4.51,2.8,4.23,9.44-.49,11.86l-1.68.86-43.61,20.48,2.79-16.76Z"/>
        <path class="cls-3" d="M787.49,306.2l24.52-11.02-20.64-11.18,2.64-14.74,36.47,20.49c4.51,2.8,4.23,9.44-.49,11.86l-1.68.86-43.61,20.48,2.79-16.76Z"/>
        <path class="cls-3" d="M836.49,306.2l24.52-11.02-20.64-11.18,2.64-14.74,36.47,20.49c4.51,2.8,4.23,9.44-.49,11.86l-1.68.86-43.61,20.48,2.79-16.76Z"/>
        <path class="cls-3" d="M885.5,306.2l24.52-11.02-20.64-11.18,2.64-14.74,36.47,20.49c4.51,2.8,4.23,9.44-.49,11.86l-1.68.86-43.61,20.48,2.79-16.76Z"/>
        <path class="cls-3" d="M3.44,359.9l24.52-11.02-20.64-11.18,2.64-14.74,36.47,20.49c4.51,2.8,4.23,9.44-.49,11.86l-1.68.86L.65,376.66l2.79-16.76Z"/>
        <path class="cls-3" d="M52.45,359.9l24.52-11.02-20.64-11.18,2.64-14.74,36.47,20.49c4.51,2.8,4.23,9.44-.49,11.86l-1.68.86-43.61,20.48,2.79-16.76Z"/>
        <path class="cls-3" d="M101.45,359.9l24.52-11.02-20.64-11.18,2.64-14.74,36.47,20.49c4.51,2.8,4.23,9.44-.49,11.86l-1.68.86-43.61,20.48,2.79-16.76Z"/>
        <path class="cls-3" d="M150.45,359.9l24.52-11.02-20.64-11.18,2.64-14.74,36.47,20.49c4.51,2.8,4.23,9.44-.49,11.86l-1.68.86-43.61,20.48,2.79-16.76Z"/>
        <path class="cls-3" d="M199.46,359.9l24.52-11.02-20.64-11.18,2.64-14.74,36.47,20.49c4.51,2.8,4.23,9.44-.49,11.86l-1.68.86-43.61,20.48,2.79-16.76Z"/>
        <path class="cls-3" d="M248.46,359.9l24.52-11.02-20.64-11.18,2.64-14.74,36.47,20.49c4.51,2.8,4.23,9.44-.49,11.86l-1.68.86-43.61,20.48,2.79-16.76Z"/>
        <path class="cls-3" d="M297.46,359.9l24.52-11.02-20.64-11.18,2.64-14.74,36.47,20.49c4.51,2.8,4.23,9.44-.49,11.86l-1.68.86-43.61,20.48,2.79-16.76Z"/>
        <path class="cls-3" d="M346.46,359.9l24.52-11.02-20.64-11.18,2.64-14.74,36.47,20.49c4.51,2.8,4.23,9.44-.49,11.86l-1.68.86-43.61,20.48,2.79-16.76Z"/>
        <path class="cls-3" d="M395.47,359.9l24.52-11.02-20.64-11.18,2.64-14.74,36.47,20.49c4.51,2.8,4.23,9.44-.49,11.86l-1.68.86-43.61,20.48,2.79-16.76Z"/>
        <path class="cls-3" d="M444.47,359.9l24.52-11.02-20.64-11.18,2.64-14.74,36.47,20.49c4.51,2.8,4.23,9.44-.49,11.86l-1.68.86-43.61,20.48,2.79-16.76Z"/>
        <path class="cls-3" d="M493.47,359.9l24.52-11.02-20.64-11.18,2.64-14.74,36.47,20.49c4.51,2.8,4.23,9.44-.49,11.86l-1.68.86-43.61,20.48,2.79-16.76Z"/>
        <path class="cls-3" d="M542.48,359.9l24.52-11.02-20.64-11.18,2.64-14.74,36.47,20.49c4.51,2.8,4.23,9.44-.49,11.86l-1.68.86-43.61,20.48,2.79-16.76Z"/>
        <path class="cls-3" d="M591.48,359.9l24.52-11.02-20.64-11.18,2.64-14.74,36.47,20.49c4.51,2.8,4.23,9.44-.49,11.86l-1.68.86-43.61,20.48,2.79-16.76Z"/>
        <path class="cls-3" d="M640.48,359.9l24.52-11.02-20.64-11.18,2.64-14.74,36.47,20.49c4.51,2.8,4.23,9.44-.49,11.86l-1.68.86-43.61,20.48,2.79-16.76Z"/>
        <path class="cls-3" d="M689.49,359.9l24.52-11.02-20.64-11.18,2.64-14.74,36.47,20.49c4.51,2.8,4.23,9.44-.49,11.86l-1.68.86-43.61,20.48,2.79-16.76Z"/>
        <path class="cls-3" d="M738.49,359.9l24.52-11.02-20.64-11.18,2.64-14.74,36.47,20.49c4.51,2.8,4.23,9.44-.49,11.86l-1.68.86-43.61,20.48,2.79-16.76Z"/>
        <path class="cls-3" d="M787.49,359.9l24.52-11.02-20.64-11.18,2.64-14.74,36.47,20.49c4.51,2.8,4.23,9.44-.49,11.86l-1.68.86-43.61,20.48,2.79-16.76Z"/>
        <path class="cls-3" d="M836.49,359.9l24.52-11.02-20.64-11.18,2.64-14.74,36.47,20.49c4.51,2.8,4.23,9.44-.49,11.86l-1.68.86-43.61,20.48,2.79-16.76Z"/>
        <path class="cls-3" d="M885.5,359.9l24.52-11.02-20.64-11.18,2.64-14.74,36.47,20.49c4.51,2.8,4.23,9.44-.49,11.86l-1.68.86-43.61,20.48,2.79-16.76Z"/>
        <path class="cls-3" d="M3.44,413.6l24.52-11.02-20.64-11.18,2.64-14.74,36.47,20.49c4.51,2.8,4.23,9.44-.49,11.86l-1.68.86L.65,430.36l2.79-16.76Z"/>
        <path class="cls-3" d="M52.45,413.6l24.52-11.02-20.64-11.18,2.64-14.74,36.47,20.49c4.51,2.8,4.23,9.44-.49,11.86l-1.68.86-43.61,20.48,2.79-16.76Z"/>
        <path class="cls-3" d="M101.45,413.6l24.52-11.02-20.64-11.18,2.64-14.74,36.47,20.49c4.51,2.8,4.23,9.44-.49,11.86l-1.68.86-43.61,20.48,2.79-16.76Z"/>
        <path class="cls-3" d="M150.45,413.6l24.52-11.02-20.64-11.18,2.64-14.74,36.47,20.49c4.51,2.8,4.23,9.44-.49,11.86l-1.68.86-43.61,20.48,2.79-16.76Z"/>
        <path class="cls-3" d="M199.46,413.6l24.52-11.02-20.64-11.18,2.64-14.74,36.47,20.49c4.51,2.8,4.23,9.44-.49,11.86l-1.68.86-43.61,20.48,2.79-16.76Z"/>
        <path class="cls-3" d="M248.46,413.6l24.52-11.02-20.64-11.18,2.64-14.74,36.47,20.49c4.51,2.8,4.23,9.44-.49,11.86l-1.68.86-43.61,20.48,2.79-16.76Z"/>
        <path class="cls-3" d="M297.46,413.6l24.52-11.02-20.64-11.18,2.64-14.74,36.47,20.49c4.51,2.8,4.23,9.44-.49,11.86l-1.68.86-43.61,20.48,2.79-16.76Z"/>
        <path class="cls-3" d="M346.46,413.6l24.52-11.02-20.64-11.18,2.64-14.74,36.47,20.49c4.51,2.8,4.23,9.44-.49,11.86l-1.68.86-43.61,20.48,2.79-16.76Z"/>
        <path class="cls-3" d="M395.47,413.6l24.52-11.02-20.64-11.18,2.64-14.74,36.47,20.49c4.51,2.8,4.23,9.44-.49,11.86l-1.68.86-43.61,20.48,2.79-16.76Z"/>
        <path class="cls-3" d="M444.47,413.6l24.52-11.02-20.64-11.18,2.64-14.74,36.47,20.49c4.51,2.8,4.23,9.44-.49,11.86l-1.68.86-43.61,20.48,2.79-16.76Z"/>
        <path class="cls-3" d="M493.47,413.6l24.52-11.02-20.64-11.18,2.64-14.74,36.47,20.49c4.51,2.8,4.23,9.44-.49,11.86l-1.68.86-43.61,20.48,2.79-16.76Z"/>
        <path class="cls-3" d="M542.48,413.6l24.52-11.02-20.64-11.18,2.64-14.74,36.47,20.49c4.51,2.8,4.23,9.44-.49,11.86l-1.68.86-43.61,20.48,2.79-16.76Z"/>
        <path class="cls-3" d="M591.48,413.6l24.52-11.02-20.64-11.18,2.64-14.74,36.47,20.49c4.51,2.8,4.23,9.44-.49,11.86l-1.68.86-43.61,20.48,2.79-16.76Z"/>
        <path class="cls-3" d="M640.48,413.6l24.52-11.02-20.64-11.18,2.64-14.74,36.47,20.49c4.51,2.8,4.23,9.44-.49,11.86l-1.68.86-43.61,20.48,2.79-16.76Z"/>
        <path class="cls-3" d="M689.49,413.6l24.52-11.02-20.64-11.18,2.64-14.74,36.47,20.49c4.51,2.8,4.23,9.44-.49,11.86l-1.68.86-43.61,20.48,2.79-16.76Z"/>
        <path class="cls-3" d="M738.49,413.6l24.52-11.02-20.64-11.18,2.64-14.74,36.47,20.49c4.51,2.8,4.23,9.44-.49,11.86l-1.68.86-43.61,20.48,2.79-16.76Z"/>
        <path class="cls-3" d="M787.49,413.6l24.52-11.02-20.64-11.18,2.64-14.74,36.47,20.49c4.51,2.8,4.23,9.44-.49,11.86l-1.68.86-43.61,20.48,2.79-16.76Z"/>
        <path class="cls-3" d="M836.49,413.6l24.52-11.02-20.64-11.18,2.64-14.74,36.47,20.49c4.51,2.8,4.23,9.44-.49,11.86l-1.68.86-43.61,20.48,2.79-16.76Z"/>
        <path class="cls-3" d="M885.5,413.6l24.52-11.02-20.64-11.18,2.64-14.74,36.47,20.49c4.51,2.8,4.23,9.44-.49,11.86l-1.68.86-43.61,20.48,2.79-16.76Z"/>
        <path class="cls-3" d="M3.44,467.3l24.52-11.02-20.64-11.18,2.64-14.74,36.47,20.49c4.51,2.8,4.23,9.44-.49,11.86l-1.68.86L.65,484.06l2.79-16.76Z"/>
        <path class="cls-3" d="M52.45,467.3l24.52-11.02-20.64-11.18,2.64-14.74,36.47,20.49c4.51,2.8,4.23,9.44-.49,11.86l-1.68.86-43.61,20.48,2.79-16.76Z"/>
        <path class="cls-3" d="M101.45,467.3l24.52-11.02-20.64-11.18,2.64-14.74,36.47,20.49c4.51,2.8,4.23,9.44-.49,11.86l-1.68.86-43.61,20.48,2.79-16.76Z"/>
        <path class="cls-3" d="M150.45,467.3l24.52-11.02-20.64-11.18,2.64-14.74,36.47,20.49c4.51,2.8,4.23,9.44-.49,11.86l-1.68.86-43.61,20.48,2.79-16.76Z"/>
        <path class="cls-3" d="M199.46,467.3l24.52-11.02-20.64-11.18,2.64-14.74,36.47,20.49c4.51,2.8,4.23,9.44-.49,11.86l-1.68.86-43.61,20.48,2.79-16.76Z"/>
        <path class="cls-3" d="M248.46,467.3l24.52-11.02-20.64-11.18,2.64-14.74,36.47,20.49c4.51,2.8,4.23,9.44-.49,11.86l-1.68.86-43.61,20.48,2.79-16.76Z"/>
        <path class="cls-3" d="M297.46,467.3l24.52-11.02-20.64-11.18,2.64-14.74,36.47,20.49c4.51,2.8,4.23,9.44-.49,11.86l-1.68.86-43.61,20.48,2.79-16.76Z"/>
        <path class="cls-3" d="M346.46,467.3l24.52-11.02-20.64-11.18,2.64-14.74,36.47,20.49c4.51,2.8,4.23,9.44-.49,11.86l-1.68.86-43.61,20.48,2.79-16.76Z"/>
        <path class="cls-3" d="M395.47,467.3l24.52-11.02-20.64-11.18,2.64-14.74,36.47,20.49c4.51,2.8,4.23,9.44-.49,11.86l-1.68.86-43.61,20.48,2.79-16.76Z"/>
        <path class="cls-3" d="M444.47,467.3l24.52-11.02-20.64-11.18,2.64-14.74,36.47,20.49c4.51,2.8,4.23,9.44-.49,11.86l-1.68.86-43.61,20.48,2.79-16.76Z"/>
        <path class="cls-3" d="M493.47,467.3l24.52-11.02-20.64-11.18,2.64-14.74,36.47,20.49c4.51,2.8,4.23,9.44-.49,11.86l-1.68.86-43.61,20.48,2.79-16.76Z"/>
        <path class="cls-3" d="M542.48,467.3l24.52-11.02-20.64-11.18,2.64-14.74,36.47,20.49c4.51,2.8,4.23,9.44-.49,11.86l-1.68.86-43.61,20.48,2.79-16.76Z"/>
        <path class="cls-3" d="M591.48,467.3l24.52-11.02-20.64-11.18,2.64-14.74,36.47,20.49c4.51,2.8,4.23,9.44-.49,11.86l-1.68.86-43.61,20.48,2.79-16.76Z"/>
        <path class="cls-3" d="M640.48,467.3l24.52-11.02-20.64-11.18,2.64-14.74,36.47,20.49c4.51,2.8,4.23,9.44-.49,11.86l-1.68.86-43.61,20.48,2.79-16.76Z"/>
        <path class="cls-3" d="M689.49,467.3l24.52-11.02-20.64-11.18,2.64-14.74,36.47,20.49c4.51,2.8,4.23,9.44-.49,11.86l-1.68.86-43.61,20.48,2.79-16.76Z"/>
        <path class="cls-3" d="M738.49,467.3l24.52-11.02-20.64-11.18,2.64-14.74,36.47,20.49c4.51,2.8,4.23,9.44-.49,11.86l-1.68.86-43.61,20.48,2.79-16.76Z"/>
        <path class="cls-3" d="M787.49,467.3l24.52-11.02-20.64-11.18,2.64-14.74,36.47,20.49c4.51,2.8,4.23,9.44-.49,11.86l-1.68.86-43.61,20.48,2.79-16.76Z"/>
        <path class="cls-3" d="M836.49,467.3l24.52-11.02-20.64-11.18,2.64-14.74,36.47,20.49c4.51,2.8,4.23,9.44-.49,11.86l-1.68.86-43.61,20.48,2.79-16.76Z"/>
        <path class="cls-3" d="M885.5,467.3l24.52-11.02-20.64-11.18,2.64-14.74,36.47,20.49c4.51,2.8,4.23,9.44-.49,11.86l-1.68.86-43.61,20.48,2.79-16.76Z"/>
        <path class="cls-3" d="M3.44,520.99l24.52-11.02-20.64-11.18,2.64-14.74,36.47,20.49c4.51,2.8,4.23,9.44-.49,11.86l-1.68.86L.65,537.76l2.79-16.76Z"/>
        <path class="cls-3" d="M52.45,520.99l24.52-11.02-20.64-11.18,2.64-14.74,36.47,20.49c4.51,2.8,4.23,9.44-.49,11.86l-1.68.86-43.61,20.48,2.79-16.76Z"/>
        <path class="cls-3" d="M101.45,520.99l24.52-11.02-20.64-11.18,2.64-14.74,36.47,20.49c4.51,2.8,4.23,9.44-.49,11.86l-1.68.86-43.61,20.48,2.79-16.76Z"/>
        <path class="cls-3" d="M150.45,520.99l24.52-11.02-20.64-11.18,2.64-14.74,36.47,20.49c4.51,2.8,4.23,9.44-.49,11.86l-1.68.86-43.61,20.48,2.79-16.76Z"/>
        <path class="cls-3" d="M199.46,520.99l24.52-11.02-20.64-11.18,2.64-14.74,36.47,20.49c4.51,2.8,4.23,9.44-.49,11.86l-1.68.86-43.61,20.48,2.79-16.76Z"/>
        <path class="cls-3" d="M248.46,520.99l24.52-11.02-20.64-11.18,2.64-14.74,36.47,20.49c4.51,2.8,4.23,9.44-.49,11.86l-1.68.86-43.61,20.48,2.79-16.76Z"/>
        <path class="cls-3" d="M297.46,520.99l24.52-11.02-20.64-11.18,2.64-14.74,36.47,20.49c4.51,2.8,4.23,9.44-.49,11.86l-1.68.86-43.61,20.48,2.79-16.76Z"/>
        <path class="cls-3" d="M346.46,520.99l24.52-11.02-20.64-11.18,2.64-14.74,36.47,20.49c4.51,2.8,4.23,9.44-.49,11.86l-1.68.86-43.61,20.48,2.79-16.76Z"/>
        <path class="cls-3" d="M395.47,520.99l24.52-11.02-20.64-11.18,2.64-14.74,36.47,20.49c4.51,2.8,4.23,9.44-.49,11.86l-1.68.86-43.61,20.48,2.79-16.76Z"/>
        <path class="cls-3" d="M444.47,520.99l24.52-11.02-20.64-11.18,2.64-14.74,36.47,20.49c4.51,2.8,4.23,9.44-.49,11.86l-1.68.86-43.61,20.48,2.79-16.76Z"/>
        <path class="cls-3" d="M493.47,520.99l24.52-11.02-20.64-11.18,2.64-14.74,36.47,20.49c4.51,2.8,4.23,9.44-.49,11.86l-1.68.86-43.61,20.48,2.79-16.76Z"/>
        <path class="cls-3" d="M542.48,520.99l24.52-11.02-20.64-11.18,2.64-14.74,36.47,20.49c4.51,2.8,4.23,9.44-.49,11.86l-1.68.86-43.61,20.48,2.79-16.76Z"/>
        <path class="cls-3" d="M591.48,520.99l24.52-11.02-20.64-11.18,2.64-14.74,36.47,20.49c4.51,2.8,4.23,9.44-.49,11.86l-1.68.86-43.61,20.48,2.79-16.76Z"/>
        <path class="cls-3" d="M640.48,520.99l24.52-11.02-20.64-11.18,2.64-14.74,36.47,20.49c4.51,2.8,4.23,9.44-.49,11.86l-1.68.86-43.61,20.48,2.79-16.76Z"/>
        <path class="cls-3" d="M689.49,520.99l24.52-11.02-20.64-11.18,2.64-14.74,36.47,20.49c4.51,2.8,4.23,9.44-.49,11.86l-1.68.86-43.61,20.48,2.79-16.76Z"/>
        <path class="cls-3" d="M738.49,520.99l24.52-11.02-20.64-11.18,2.64-14.74,36.47,20.49c4.51,2.8,4.23,9.44-.49,11.86l-1.68.86-43.61,20.48,2.79-16.76Z"/>
        <path class="cls-3" d="M787.49,520.99l24.52-11.02-20.64-11.18,2.64-14.74,36.47,20.49c4.51,2.8,4.23,9.44-.49,11.86l-1.68.86-43.61,20.48,2.79-16.76Z"/>
        <path class="cls-3" d="M836.49,520.99l24.52-11.02-20.64-11.18,2.64-14.74,36.47,20.49c4.51,2.8,4.23,9.44-.49,11.86l-1.68.86-43.61,20.48,2.79-16.76Z"/>
        <path class="cls-3" d="M885.5,520.99l24.52-11.02-20.64-11.18,2.64-14.74,36.47,20.49c4.51,2.8,4.23,9.44-.49,11.86l-1.68.86-43.61,20.48,2.79-16.76Z"/>
        <path class="cls-3" d="M3.44,574.69l24.52-11.02-20.64-11.18,2.64-14.74,36.47,20.49c4.51,2.8,4.23,9.44-.49,11.86l-1.68.86L.65,591.45l2.79-16.76Z"/>
        <path class="cls-3" d="M52.45,574.69l24.52-11.02-20.64-11.18,2.64-14.74,36.47,20.49c4.51,2.8,4.23,9.44-.49,11.86l-1.68.86-43.61,20.48,2.79-16.76Z"/>
        <path class="cls-3" d="M101.45,574.69l24.52-11.02-20.64-11.18,2.64-14.74,36.47,20.49c4.51,2.8,4.23,9.44-.49,11.86l-1.68.86-43.61,20.48,2.79-16.76Z"/>
        <path class="cls-3" d="M150.45,574.69l24.52-11.02-20.64-11.18,2.64-14.74,36.47,20.49c4.51,2.8,4.23,9.44-.49,11.86l-1.68.86-43.61,20.48,2.79-16.76Z"/>
        <path class="cls-3" d="M199.46,574.69l24.52-11.02-20.64-11.18,2.64-14.74,36.47,20.49c4.51,2.8,4.23,9.44-.49,11.86l-1.68.86-43.61,20.48,2.79-16.76Z"/>
        <path class="cls-3" d="M248.46,574.69l24.52-11.02-20.64-11.18,2.64-14.74,36.47,20.49c4.51,2.8,4.23,9.44-.49,11.86l-1.68.86-43.61,20.48,2.79-16.76Z"/>
        <path class="cls-3" d="M297.46,574.69l24.52-11.02-20.64-11.18,2.64-14.74,36.47,20.49c4.51,2.8,4.23,9.44-.49,11.86l-1.68.86-43.61,20.48,2.79-16.76Z"/>
        <path class="cls-3" d="M346.46,574.69l24.52-11.02-20.64-11.18,2.64-14.74,36.47,20.49c4.51,2.8,4.23,9.44-.49,11.86l-1.68.86-43.61,20.48,2.79-16.76Z"/>
        <path class="cls-3" d="M395.47,574.69l24.52-11.02-20.64-11.18,2.64-14.74,36.47,20.49c4.51,2.8,4.23,9.44-.49,11.86l-1.68.86-43.61,20.48,2.79-16.76Z"/>
        <path class="cls-3" d="M444.47,574.69l24.52-11.02-20.64-11.18,2.64-14.74,36.47,20.49c4.51,2.8,4.23,9.44-.49,11.86l-1.68.86-43.61,20.48,2.79-16.76Z"/>
        <path class="cls-3" d="M493.47,574.69l24.52-11.02-20.64-11.18,2.64-14.74,36.47,20.49c4.51,2.8,4.23,9.44-.49,11.86l-1.68.86-43.61,20.48,2.79-16.76Z"/>
        <path class="cls-3" d="M542.48,574.69l24.52-11.02-20.64-11.18,2.64-14.74,36.47,20.49c4.51,2.8,4.23,9.44-.49,11.86l-1.68.86-43.61,20.48,2.79-16.76Z"/>
        <path class="cls-3" d="M591.48,574.69l24.52-11.02-20.64-11.18,2.64-14.74,36.47,20.49c4.51,2.8,4.23,9.44-.49,11.86l-1.68.86-43.61,20.48,2.79-16.76Z"/>
        <path class="cls-3" d="M640.48,574.69l24.52-11.02-20.64-11.18,2.64-14.74,36.47,20.49c4.51,2.8,4.23,9.44-.49,11.86l-1.68.86-43.61,20.48,2.79-16.76Z"/>
        <path class="cls-3" d="M689.49,574.69l24.52-11.02-20.64-11.18,2.64-14.74,36.47,20.49c4.51,2.8,4.23,9.44-.49,11.86l-1.68.86-43.61,20.48,2.79-16.76Z"/>
        <path class="cls-3" d="M738.49,574.69l24.52-11.02-20.64-11.18,2.64-14.74,36.47,20.49c4.51,2.8,4.23,9.44-.49,11.86l-1.68.86-43.61,20.48,2.79-16.76Z"/>
        <path class="cls-3" d="M787.49,574.69l24.52-11.02-20.64-11.18,2.64-14.74,36.47,20.49c4.51,2.8,4.23,9.44-.49,11.86l-1.68.86-43.61,20.48,2.79-16.76Z"/>
        <path class="cls-3" d="M836.49,574.69l24.52-11.02-20.64-11.18,2.64-14.74,36.47,20.49c4.51,2.8,4.23,9.44-.49,11.86l-1.68.86-43.61,20.48,2.79-16.76Z"/>
        <path class="cls-3" d="M885.5,574.69l24.52-11.02-20.64-11.18,2.64-14.74,36.47,20.49c4.51,2.8,4.23,9.44-.49,11.86l-1.68.86-43.61,20.48,2.79-16.76Z"/>
      </g>
    </g>
  </g>
</svg>