<?xml version="1.0" encoding="UTF-8"?>
<svg id="Camada_2" data-name="Camada 2" xmlns="http://www.w3.org/2000/svg" viewBox="0 0 932.99 108.91">
  <defs>
    <style>
      .cls-1 {
        fill: #fff;
        stroke-width: 0px;
      }
    </style>
  </defs>
  <g id="Camada_1-2" data-name="Camada 1">
    <g>
      <path class="cls-1" d="M581.48,19.77h-8.41l-11.96,35.2h-18.45l11.96-35.2h-8.41l3.41-10.02h35.25l-3.39,10.02h0ZM536.28,43.01c-1.38,4.04-4.14,7.17-8.3,9.37-4.18,2.2-9.4,3.29-15.68,3.29s-10.48-1.04-12.79-3.1c-2.31-2.07-2.91-5.71-1.84-10.91l16.78-2.01c-.82,4.48-.46,6.71,1.1,6.71,1.36,0,2.32-.75,2.83-2.25.51-1.51.39-2.86-.36-4.09-.75-1.2-2.4-2.58-4.95-4.13-3.79-2.32-6.33-4.53-7.61-6.58-1.28-2.25-1.43-4.84-.42-7.82,2.82-8.31,10.62-12.46,23.41-12.46,5.94,0,10.06,1.05,12.35,3.16,2.3,2.12,3,5.37,2.11,9.75l-16.15,2.01c.65-3.76.2-5.62-1.38-5.62-1.23,0-2.04.6-2.45,1.79-.36,1.03-.19,1.96.5,2.79.62.94,2.22,2.21,4.77,3.75,4.23,2.62,6.9,5.01,8.02,7.15,1.33,2.37,1.33,5.43.06,9.18h0ZM491.29,54.96h-32.18l15.36-45.21h32.1l-3.4,10.02h-13.65l-2.18,6.38h11.09l-3.36,9.88h-11.08l-3.03,8.92h13.75l-3.41,10.01h0ZM460.32,43.01c-1.37,4.04-4.14,7.17-8.31,9.37-4.16,2.2-9.38,3.29-15.67,3.29s-10.48-1.04-12.79-3.1c-2.31-2.07-2.92-5.71-1.83-10.91l16.78-2.01c-.84,4.48-.48,6.71,1.09,6.71,1.37,0,2.32-.75,2.82-2.25.5-1.51.39-2.86-.37-4.09-.75-1.2-2.38-2.58-4.94-4.13-3.79-2.32-6.32-4.53-7.61-6.58-1.3-2.25-1.42-4.84-.41-7.82,2.82-8.31,10.62-12.46,23.41-12.46,5.93,0,10.06,1.05,12.34,3.16,2.29,2.12,2.99,5.37,2.12,9.75l-16.16,2.01c.66-3.76.2-5.62-1.37-5.62-1.23,0-2.07.6-2.46,1.79-.35,1.03-.19,1.96.49,2.79.63.94,2.23,2.21,4.77,3.75,4.24,2.62,6.91,5.01,8.02,7.15,1.32,2.37,1.35,5.43.08,9.18h0Z"/>
      <path class="cls-1" d="M802.67,19.77h-8.41l-11.95,35.2h-18.46l11.95-35.2h-8.41l3.41-10.02h35.25l-3.4,10.02h0ZM745.57,39.08l.49-2.33c.46-2.36,1.67-7.64,3.64-15.81-2.02,4.7-4.39,9.96-7.13,15.81l-1.09,2.33h4.09ZM761,54.96h-18.16l1.2-6.85h-7.18l-3.45,6.85h-17.53l25.93-45.21h23.97l-4.78,45.21h0ZM714.44,54.96h-14.65l-1.27-8.34c-.71-4.72-1.07-8.52-1.07-11.37-.62,2.46-1.74,6.05-3.35,10.79l-3.04,8.92h-16.6l15.35-45.21h15.6l.86,5.56c.88,5.5,1.32,9.62,1.36,12.34.6-2.8,1.78-6.74,3.5-11.83l2.05-6.06h16.63l-15.38,45.21h0ZM671.7,54.96h-32.19l15.36-45.21h32.08l-3.4,10.02h-13.63l-2.18,6.38h11.07l-3.35,9.88h-11.08l-3.02,8.92h13.74l-3.41,10.01h0ZM640.71,43.01c-1.38,4.04-4.15,7.17-8.3,9.37-4.16,2.2-9.39,3.29-15.68,3.29s-10.48-1.04-12.78-3.1c-2.31-2.07-2.92-5.71-1.83-10.91l16.76-2.01c-.82,4.48-.46,6.71,1.1,6.71,1.38,0,2.31-.75,2.83-2.25.52-1.51.38-2.86-.35-4.09-.76-1.2-2.42-2.58-4.96-4.13-3.79-2.32-6.33-4.53-7.62-6.58-1.27-2.25-1.42-4.84-.41-7.82,2.83-8.31,10.63-12.46,23.4-12.46,5.96,0,10.07,1.05,12.35,3.16,2.3,2.12,3.01,5.37,2.12,9.75l-16.15,2.01c.67-3.76.2-5.62-1.37-5.62-1.22,0-2.04.6-2.45,1.79-.36,1.03-.18,1.96.49,2.79.64.94,2.23,2.21,4.77,3.75,4.24,2.62,6.91,5.01,8.02,7.15,1.32,2.37,1.35,5.43.06,9.18h0Z"/>
      <path class="cls-1" d="M290.18,39.4c-2.75,5.47-5.88,9.47-9.41,12.02-3.97,2.84-9.03,4.26-15.18,4.26-7.04,0-11.56-1.57-13.57-4.72-2.21-3.57-1.81-9.77,1.19-18.6,3-8.82,6.81-15.03,11.44-18.6,4.14-3.14,9.74-4.72,16.77-4.72,6.29,0,10.47,1.47,12.55,4.4,1.79,2.58,2.02,6.61.71,12.07l-17.83,1.49c1.12-3.49,1.73-5.69,1.83-6.59.11-.91-.12-1.36-.67-1.36-.61,0-1.23.62-1.86,1.87-.76,1.63-2.16,5.45-4.19,11.43-2.03,5.99-3.22,9.79-3.58,11.43-.22,1.24-.02,1.87.59,1.87.55,0,1.07-.41,1.55-1.23.48-.82,1.49-3.08,3.02-6.78l16.63,1.74h0ZM327.03,54.96h-14.66l-1.27-8.33c-.71-4.73-1.07-8.52-1.06-11.36-.62,2.45-1.74,6.04-3.35,10.78l-3.03,8.91h-16.61l15.36-45.21h15.58l.88,5.56c.86,5.51,1.31,9.62,1.34,12.34.61-2.8,1.78-6.74,3.5-11.82l2.06-6.07h16.61l-15.36,45.21h0ZM376.7,19.77h-8.4l-11.96,35.2h-18.45l11.96-35.2h-8.4l3.4-10.01h35.26l-3.4,10.01h0Z"/>
      <polygon class="cls-1" points="863.81 9.05 879.4 9.05 862.83 55.67 847.24 55.67 863.81 9.05 863.81 9.05"/>
      <polygon class="cls-1" points="885.96 21.7 877.37 21.7 881.87 9.05 914.63 9.05 910.13 21.7 901.54 21.7 889.47 55.67 873.89 55.67 885.96 21.7 885.96 21.7"/>
      <polygon class="cls-1" points="917.03 9.05 932.61 9.05 920.55 43.02 932.99 43.02 928.5 55.67 900.46 55.67 917.03 9.05 917.03 9.05"/>
      <polygon class="cls-1" points="407.74 9.79 403.5 9.79 388.27 55.28 392.52 55.28 407.74 9.79 407.74 9.79"/>
      <polygon class="cls-1" points="833.96 9.79 829.71 9.79 814.48 55.28 818.73 55.28 833.96 9.79 833.96 9.79"/>
      <path class="cls-1" d="M432.18,102.44c2.13,0,4.03-.33,5.68-.98,1.65-.66,2.93-1.58,3.84-2.78.9-1.2,1.35-2.6,1.35-4.22,0-1.31-.35-2.38-1.04-3.2-.69-.82-1.53-1.44-2.52-1.86-.98-.42-2.25-.86-3.8-1.3-1.22-.38-2.15-.69-2.78-.93-.63-.25-1.17-.58-1.62-1-.45-.42-.67-.95-.67-1.58,0-1.1.53-1.99,1.6-2.66,1.07-.67,2.52-1,4.35-1,1.24,0,2.44.16,3.59.49,1.15.33,2.18.8,3.1,1.41l1.8-3.62c-1.03-.66-2.26-1.17-3.7-1.53-1.43-.36-2.94-.55-4.54-.55-2.11,0-3.98.33-5.6.98-1.62.66-2.88,1.58-3.78,2.78-.9,1.2-1.35,2.59-1.35,4.19,0,1.38.35,2.51,1.06,3.38.7.87,1.55,1.52,2.53,1.95.99.43,2.28.89,3.87,1.35,1.15.33,2.05.62,2.69.88.64.26,1.18.59,1.62,1,.43.41.65.92.65,1.53,0,1.08-.53,1.93-1.6,2.55-1.07.62-2.5.93-4.31.93-1.48,0-2.93-.24-4.35-.72-1.42-.48-2.65-1.13-3.68-1.95l-1.94,3.59c.99.84,2.35,1.54,4.08,2.08,1.74.54,3.55.81,5.45.81h0ZM444.78,102.09h4.4l3.73-18.79h-4.4l-3.73,18.79h0ZM451.71,80.2c.89,0,1.61-.27,2.16-.81.55-.54.83-1.24.83-2.11,0-.66-.25-1.21-.74-1.67-.49-.46-1.13-.69-1.9-.69-.89,0-1.61.27-2.16.81-.55.54-.83,1.21-.83,2.01,0,.68.25,1.26.74,1.74.49.48,1.13.72,1.9.72h0ZM460.3,102.33c2.72,0,4.9-.55,6.55-1.65,1.64-1.1,2.46-2.66,2.46-4.68,0-1.13-.31-2.02-.92-2.67-.61-.66-1.34-1.13-2.18-1.43-.84-.29-1.92-.57-3.24-.83-1.31-.28-2.28-.56-2.9-.83-.62-.27-.93-.71-.93-1.32,0-.68.36-1.23,1.07-1.65.72-.42,1.77-.63,3.15-.63.99,0,1.96.12,2.94.35.97.23,1.85.6,2.62,1.09l1.62-3.38c-.77-.49-1.77-.89-2.99-1.18-1.22-.29-2.48-.44-3.77-.44-2.7,0-4.86.57-6.49,1.71-1.63,1.14-2.45,2.68-2.45,4.63,0,1.17.31,2.09.93,2.76.62.67,1.36,1.15,2.22,1.44.86.29,1.95.57,3.29.83,1.29.28,2.24.55,2.83.81.6.26.9.67.9,1.23,0,.73-.36,1.28-1.07,1.67-.72.39-1.78.58-3.18.58-1.24,0-2.45-.16-3.62-.49-1.17-.33-2.15-.77-2.92-1.34l-1.83,3.38c.8.59,1.92,1.07,3.36,1.46,1.44.39,2.96.58,4.56.58h0ZM478.91,86.95h5.07l.7-3.52h-5.07l.88-4.29h-4.4l-.84,4.29h-3.06l-.7,3.52h3.06l-1.8,8.87c-.09.47-.14.96-.14,1.48,0,1.57.49,2.8,1.48,3.7.98.89,2.29,1.34,3.91,1.34,1.83,0,3.34-.37,4.54-1.13l-.77-3.24c-.73.49-1.55.74-2.46.74-1.48,0-2.22-.7-2.22-2.11,0-.16.02-.43.07-.81l1.76-8.83h0ZM503.86,91.32c0-2.56-.79-4.57-2.36-6.03-1.57-1.47-3.67-2.2-6.3-2.2-2.06,0-3.92.47-5.58,1.41-1.65.94-2.94,2.25-3.87,3.92-.93,1.68-1.39,3.56-1.39,5.65,0,1.64.38,3.09,1.13,4.35.75,1.26,1.82,2.22,3.22,2.9,1.4.68,3.03,1.02,4.91,1.02,1.48,0,2.89-.22,4.24-.65,1.35-.43,2.5-1.08,3.47-1.95l-1.83-3.06c-.66.61-1.45,1.09-2.39,1.43-.94.34-1.95.51-3.03.51-3.54,0-5.35-1.54-5.42-4.61h14.92c.19-.87.28-1.76.28-2.67h0ZM495,86.6c1.48,0,2.66.39,3.54,1.18.88.79,1.31,1.88,1.28,3.29h-10.77c.4-1.38,1.12-2.47,2.16-3.27,1.04-.8,2.3-1.2,3.78-1.2h0ZM531.88,83.08c-3.03,0-5.5,1.03-7.43,3.1-.52-1.01-1.28-1.78-2.29-2.31-1.01-.53-2.19-.79-3.55-.79-2.51,0-4.56.75-6.16,2.25l.39-2.04h-4.19l-3.73,18.79h4.4l1.97-9.75c.73-3.61,2.65-5.42,5.77-5.42,2.39,0,3.59,1.13,3.59,3.38,0,.52-.05,1.01-.14,1.48l-2.08,10.31h4.4l1.97-9.78c.73-3.59,2.65-5.38,5.77-5.38,2.39,0,3.59,1.13,3.59,3.38,0,.52-.05,1.01-.14,1.48l-2.08,10.31h4.4l2.08-10.42c.16-.8.25-1.57.25-2.32,0-2.02-.6-3.57-1.81-4.65-1.21-1.08-2.87-1.62-4.98-1.62h0ZM558.8,83.29l-.53,2.78c-1.27-1.99-3.4-2.99-6.4-2.99-2,0-3.8.47-5.4,1.41-1.61.94-2.87,2.25-3.8,3.92-.93,1.68-1.39,3.56-1.39,5.65,0,1.69.36,3.16,1.09,4.42.73,1.26,1.72,2.21,2.97,2.87,1.26.66,2.66.99,4.21.99,2.44,0,4.48-.73,6.12-2.18l-.39,1.94h4.19l3.73-18.79h-4.4ZM550.67,98.57c-1.57,0-2.79-.42-3.66-1.25-.87-.83-1.3-1.99-1.3-3.47,0-1.36.28-2.57.84-3.64.56-1.07,1.33-1.9,2.3-2.5.97-.6,2.08-.9,3.33-.9,1.57,0,2.79.42,3.66,1.25.87.83,1.3,1.99,1.3,3.47,0,1.36-.28,2.58-.84,3.64-.56,1.07-1.33,1.9-2.3,2.5-.97.6-2.08.9-3.33.9h0ZM578.26,102.09h4.57l4.12-20.76h8.16l.81-3.87h-20.9l-.77,3.87h8.16l-4.15,20.76h0ZM599.93,85.72l.49-2.43h-4.19l-3.73,18.79h4.4l1.86-9.26c.75-3.78,2.92-5.67,6.51-5.67.33,0,.69.04,1.09.11l.81-4.19c-1.64,0-3.06.2-4.24.6-1.18.4-2.19,1.08-3.01,2.04h0ZM623.58,83.29l-.53,2.78c-1.27-1.99-3.4-2.99-6.41-2.99-1.99,0-3.79.47-5.4,1.41-1.61.94-2.87,2.25-3.8,3.92-.93,1.68-1.39,3.56-1.39,5.65,0,1.69.36,3.16,1.09,4.42.73,1.26,1.72,2.21,2.97,2.87,1.26.66,2.66.99,4.21.99,2.44,0,4.48-.73,6.12-2.18l-.39,1.94h4.19l3.73-18.79h-4.4ZM615.45,98.57c-1.57,0-2.79-.42-3.66-1.25-.87-.83-1.3-1.99-1.3-3.47,0-1.36.28-2.57.84-3.64.56-1.07,1.33-1.9,2.31-2.5.97-.6,2.08-.9,3.33-.9,1.57,0,2.79.42,3.66,1.25.87.83,1.3,1.99,1.3,3.47,0,1.36-.28,2.58-.84,3.64-.56,1.07-1.33,1.9-2.3,2.5-.97.6-2.08.9-3.33.9h0ZM642.94,83.08c-2.63,0-4.79.76-6.48,2.29l.42-2.08h-4.19l-3.73,18.79h4.4l1.97-9.75c.38-1.81,1.09-3.16,2.15-4.06,1.06-.9,2.39-1.35,4.01-1.35,2.51,0,3.77,1.14,3.77,3.41,0,.49-.05.97-.14,1.44l-2.04,10.31h4.4l2.08-10.42c.16-.94.25-1.69.25-2.25,0-2.02-.62-3.58-1.85-4.68-1.23-1.1-2.9-1.65-5.01-1.65h0ZM658.42,102.33c2.72,0,4.9-.55,6.55-1.65,1.64-1.1,2.46-2.66,2.46-4.68,0-1.13-.31-2.02-.92-2.67-.61-.66-1.34-1.13-2.18-1.43-.84-.29-1.92-.57-3.24-.83-1.31-.28-2.28-.56-2.9-.83-.62-.27-.93-.71-.93-1.32,0-.68.36-1.23,1.07-1.65.72-.42,1.77-.63,3.15-.63.98,0,1.96.12,2.94.35.97.23,1.85.6,2.62,1.09l1.62-3.38c-.77-.49-1.77-.89-2.99-1.18-1.22-.29-2.47-.44-3.76-.44-2.7,0-4.86.57-6.49,1.71-1.63,1.14-2.45,2.68-2.45,4.63,0,1.17.31,2.09.93,2.76.62.67,1.36,1.15,2.22,1.44.86.29,1.95.57,3.29.83,1.29.28,2.23.55,2.83.81.6.26.9.67.9,1.23,0,.73-.36,1.28-1.07,1.67-.72.39-1.78.58-3.18.58-1.24,0-2.45-.16-3.62-.49-1.17-.33-2.15-.77-2.92-1.34l-1.83,3.38c.8.59,1.92,1.07,3.36,1.46,1.44.39,2.96.58,4.56.58h0ZM682.74,83.08c-2.44,0-4.48.73-6.12,2.18l.39-1.97h-4.19l-5.1,25.62h4.4l1.9-9.61c.61.99,1.47,1.74,2.57,2.25,1.1.52,2.39.77,3.87.77,1.97,0,3.76-.48,5.37-1.43,1.61-.95,2.87-2.26,3.8-3.94.93-1.68,1.39-3.56,1.39-5.65,0-1.69-.36-3.15-1.09-4.4-.73-1.24-1.72-2.19-2.97-2.85-1.26-.66-2.66-.99-4.21-.99h0ZM680.1,98.57c-1.57,0-2.79-.42-3.66-1.25-.87-.83-1.3-1.99-1.3-3.47,0-1.36.28-2.57.84-3.64.56-1.07,1.33-1.9,2.3-2.5.97-.6,2.08-.9,3.33-.9,1.57,0,2.79.42,3.66,1.25.87.83,1.3,1.99,1.3,3.47,0,1.36-.28,2.58-.84,3.64-.56,1.07-1.33,1.9-2.3,2.5-.97.6-2.08.9-3.33.9h0ZM701.46,102.33c2.13,0,4.05-.48,5.75-1.44,1.7-.96,3.03-2.27,3.99-3.94.96-1.67,1.44-3.54,1.44-5.63,0-1.64-.38-3.08-1.13-4.33-.75-1.24-1.82-2.21-3.2-2.89-1.38-.68-2.99-1.02-4.82-1.02-2.13,0-4.05.48-5.75,1.43-1.7.95-3.03,2.26-3.98,3.92-.95,1.67-1.43,3.54-1.43,5.63,0,1.64.37,3.08,1.13,4.33.75,1.24,1.81,2.21,3.19,2.9,1.37.69,2.97,1.04,4.8,1.04h0ZM701.74,98.57c-1.57,0-2.79-.42-3.66-1.25-.87-.83-1.3-1.99-1.3-3.47,0-1.36.28-2.57.84-3.64.56-1.07,1.33-1.9,2.3-2.5.97-.6,2.08-.9,3.33-.9,1.57,0,2.79.42,3.66,1.25.87.83,1.3,1.99,1.3,3.47,0,1.36-.28,2.58-.84,3.64-.56,1.07-1.33,1.9-2.31,2.5-.97.6-2.08.9-3.33.9h0ZM721.24,85.72l.49-2.43h-4.19l-3.73,18.79h4.4l1.87-9.26c.75-3.78,2.92-5.67,6.51-5.67.33,0,.69.04,1.09.11l.81-4.19c-1.64,0-3.06.2-4.24.6-1.18.4-2.19,1.08-3.01,2.04h0ZM736.02,86.95h5.07l.7-3.52h-5.07l.88-4.29h-4.4l-.84,4.29h-3.06l-.7,3.52h3.06l-1.8,8.87c-.09.47-.14.96-.14,1.48,0,1.57.49,2.8,1.48,3.7.98.89,2.29,1.34,3.91,1.34,1.83,0,3.34-.37,4.54-1.13l-.77-3.24c-.73.49-1.55.74-2.46.74-1.48,0-2.22-.7-2.22-2.11,0-.16.02-.43.07-.81l1.76-8.83h0ZM760.97,91.32c0-2.56-.79-4.57-2.36-6.03-1.57-1.47-3.67-2.2-6.3-2.2-2.07,0-3.92.47-5.58,1.41-1.65.94-2.94,2.25-3.87,3.92-.93,1.68-1.39,3.56-1.39,5.65,0,1.64.37,3.09,1.13,4.35.75,1.26,1.82,2.22,3.22,2.9,1.4.68,3.03,1.02,4.91,1.02,1.48,0,2.89-.22,4.24-.65,1.35-.43,2.5-1.08,3.47-1.95l-1.83-3.06c-.66.61-1.46,1.09-2.39,1.43-.94.34-1.95.51-3.03.51-3.54,0-5.35-1.54-5.42-4.61h14.92c.19-.87.28-1.76.28-2.67h0ZM752.1,86.6c1.48,0,2.66.39,3.54,1.18.88.79,1.31,1.88,1.28,3.29h-10.77c.4-1.38,1.12-2.47,2.16-3.27,1.04-.8,2.3-1.2,3.78-1.2h0Z"/>
      <polygon class="cls-1" points="930.27 92.62 777.68 92.62 779.2 88.34 931.74 88.34 930.27 92.62 930.27 92.62"/>
      <polygon class="cls-1" points="404.46 92.62 251.87 92.62 253.39 88.34 405.93 88.34 404.46 92.62 404.46 92.62"/>
      <polygon class="cls-1" points="36.04 0 69.94 0 33.9 101.4 0 101.4 36.04 0 36.04 0"/>
      <polygon class="cls-1" points="84.21 27.52 65.52 27.52 75.3 0 146.57 0 136.79 27.52 118.11 27.52 91.84 101.4 57.94 101.4 84.21 27.52 84.21 27.52"/>
      <polygon class="cls-1" points="151.79 0 185.69 0 159.43 73.88 186.52 73.88 176.73 101.4 115.75 101.4 151.79 0 151.79 0"/>
    </g>
  </g>
</svg>